/* XPM */
static const char * capture_point_16x16_xpm[] = {
"16 16 44 1",
" 	c None",
".	c #4A0606",
"+	c #740808",
"@	c #960404",
"#	c #780101",
"$	c #760606",
"%	c #700909",
"&	c #800707",
"*	c #9D0303",
"=	c #840404",
"-	c #780707",
";	c #860606",
">	c #6A0101",
",	c #790404",
"'	c #6C0707",
")	c #510606",
"!	c #690505",
"~	c #800303",
"{	c #720909",
"]	c #8E0505",
"^	c #950202",
"/	c #810505",
"(	c #730808",
"_	c #760808",
":	c #940404",
"<	c #4B0606",
"[	c #8C0303",
"}	c #700101",
"|	c #7D0303",
"1	c #7C0606",
"2	c #6F0808",
"3	c #630707",
"4	c #700808",
"5	c #820707",
"6	c #9E0303",
"7	c #630303",
"8	c #520505",
"9	c #850404",
"0	c #770707",
"a	c #870606",
"b	c #650101",
"c	c #800505",
"d	c #710707",
"e	c #4E0707",
"                ",
"  .+@#          ",
"  $%&*          ",
"  =-%;          ",
"  >,')          ",
"                ",
"                ",
"                ",
"                ",
"  !~            ",
" '{]^           ",
" /(_:     <'[}  ",
" |123     $456  ",
"  78      90%a  ",
"          bcde  ",
"                "};
