/* XPM */
static const char * capture_rectangle_16x16_xpm[] = {
"16 16 163 2",
"  	c None",
". 	c #FFB30D",
"+ 	c #FECA35",
"@ 	c #FAC537",
"# 	c #F6BF31",
"$ 	c #F2B82B",
"% 	c #EEB225",
"& 	c #EAAB20",
"* 	c #E5A219",
"= 	c #E19A14",
"- 	c #D98E0C",
"; 	c #B85E00",
"> 	c #FEC922",
", 	c #FFF58B",
"' 	c #FFF389",
") 	c #FEED70",
"! 	c #FEE75B",
"~ 	c #FEE150",
"{ 	c #FDDA45",
"] 	c #FDD133",
"^ 	c #FDC722",
"/ 	c #F6B30A",
"( 	c #AC5900",
"_ 	c #FBC521",
": 	c #FFF385",
"< 	c #FFEC4D",
"[ 	c #FFDF07",
"} 	c #FFD800",
"| 	c #FFD100",
"1 	c #FFCB00",
"2 	c #FFC300",
"3 	c #FFBC00",
"4 	c #F8AE00",
"5 	c #A05100",
"6 	c #F7BF1D",
"7 	c #FFEE73",
"8 	c #FFE324",
"9 	c #FFD900",
"0 	c #FFC400",
"a 	c #FFB600",
"b 	c #F7A800",
"c 	c #835027",
"d 	c #16499B",
"e 	c #195BC0",
"f 	c #1151B5",
"g 	c #F3B719",
"h 	c #FEE862",
"i 	c #FFDB18",
"j 	c #FFCA00",
"k 	c #FFBD00",
"l 	c #FFB500",
"m 	c #FFAF00",
"n 	c #F7A101",
"o 	c #8C684A",
"p 	c #5E99D4",
"q 	c #57A5F6",
"r 	c #2E7BDA",
"s 	c #EFB115",
"t 	c #FEE255",
"u 	c #FFD61B",
"v 	c #FFAE00",
"w 	c #FFAA03",
"x 	c #F69F0D",
"y 	c #7E604B",
"z 	c #458ED8",
"A 	c #409BFB",
"B 	c #2678DB",
"C 	c #ECAB12",
"D 	c #FEDC48",
"E 	c #FFD01B",
"F 	c #FFB000",
"G 	c #FFAB05",
"H 	c #FFAA12",
"I 	c #F6A01F",
"J 	c #75584B",
"K 	c #3785D8",
"L 	c #3593FB",
"M 	c #2073D8",
"N 	c #E8A20E",
"O 	c #FDD337",
"P 	c #FFC713",
"Q 	c #FFAF01",
"R 	c #FFAC09",
"S 	c #FFAB1B",
"T 	c #FFAC2B",
"U 	c #F5A235",
"V 	c #6D514B",
"W 	c #2C7ED8",
"X 	c #2A8CFB",
"Y 	c #1A6ED4",
"Z 	c #E49B0B",
"` 	c #FDCB29",
" .	c #FFBF0A",
"..	c #FFB002",
"+.	c #FFAD0D",
"@.	c #FFAD1C",
"#.	c #FFAD2F",
"$.	c #FFAF3F",
"%.	c #F4A94F",
"&.	c #664A4B",
"*.	c #2579D8",
"=.	c #2A8AFB",
"-.	c #1D6DD1",
";.	c #DD9007",
">.	c #F8B812",
",.	c #F9AF01",
"'.	c #F8A903",
").	c #F8A70F",
"!.	c #F7A61E",
"~.	c #F7A62C",
"{.	c #F6A73F",
"].	c #F6AE59",
"^.	c #EBAD6F",
"/.	c #60444C",
"(.	c #2879DA",
"_.	c #338EFB",
":.	c #226ECE",
"<.	c #BD6300",
"[.	c #B26000",
"}.	c #A95900",
"|.	c #8D541E",
"1.	c #926841",
"2.	c #8B6444",
"3.	c #7F5C44",
"4.	c #775446",
"5.	c #724F48",
"6.	c #6D4B4A",
"7.	c #464E7B",
"8.	c #3480DD",
"9.	c #3F94FC",
"0.	c #2A71CB",
"a.	c #143A81",
"b.	c #588DC6",
"c.	c #4F8BCB",
"d.	c #387ECB",
"e.	c #2E77CB",
"f.	c #2B74CB",
"g.	c #3077CE",
"h.	c #387ED4",
"i.	c #4089E4",
"j.	c #519DFC",
"k.	c #3978C8",
"l.	c #0D4DB5",
"m.	c #519FF4",
"n.	c #439BF8",
"o.	c #3391F8",
"p.	c #308DF8",
"q.	c #358EF8",
"r.	c #3B91F8",
"s.	c #4494F8",
"t.	c #559EF9",
"u.	c #75AFFC",
"v.	c #5180C2",
"w.	c #2A76D7",
"x.	c #2373D6",
"y.	c #2070D3",
"z.	c #216FCF",
"A.	c #226ECC",
"B.	c #246DC9",
"C.	c #2A6FC6",
"D.	c #3776C5",
"E.	c #497CC2",
"F.	c #315D9A",
"                                ",
"  . + @ # $ % & * = - ;         ",
"  > , ' ) ! ~ { ] ^ / (         ",
"  _ : < [ } | 1 2 3 4 5         ",
"  6 7 8 9 | 1 0 3 a b c d e f   ",
"  g h i | j 2 k l m n o p q r   ",
"  s t u 1 2 3 a v w x y z A B   ",
"  C D E 0 k a F G H I J K L M   ",
"  N O P 3 l Q R S T U V W X Y   ",
"  Z `  .a ..+.@.#.$.%.&.*.=.-.  ",
"  ;.>.,.'.).!.~.{.].^./.(._.:.  ",
"  <.[.}.|.1.2.3.4.5.6.7.8.9.0.  ",
"        a.b.c.d.e.f.g.h.i.j.k.  ",
"        l.m.n.o.p.q.r.s.t.u.v.  ",
"          w.x.y.z.A.B.C.D.E.F.  ",
"                                "};
