/* XPM */
static const char * capture_line_16x16_xpm[] = {
"16 16 49 1",
" 	c None",
".	c #000000",
"+	c #470606",
"@	c #850404",
"#	c #7F0202",
"$	c #5C0404",
"%	c #700808",
"&	c #770808",
"*	c #980404",
"=	c #730101",
"-	c #6C0202",
";	c #7B0606",
">	c #6B0808",
",	c #7F0707",
"'	c #720303",
")	c #7F0404",
"!	c #720707",
"~	c #660808",
"{	c #250202",
"]	c #540707",
"^	c #690303",
"/	c #740202",
"(	c #470505",
"_	c #630303",
":	c #1B0000",
"<	c #580404",
"[	c #700909",
"}	c #9C0303",
"|	c #6D0101",
"1	c #510505",
"2	c #6F0909",
"3	c #8C0505",
"4	c #870202",
"5	c #6E0303",
"6	c #790707",
"7	c #680808",
"8	c #820707",
"9	c #680202",
"0	c #730505",
"a	c #940505",
"b	c #680101",
"c	c #840404",
"d	c #390303",
"e	c #700303",
"f	c #6E0808",
"g	c #780707",
"h	c #5D0404",
"i	c #670606",
"j	c #460606",
"                ",
" .              ",
" ..             ",
"  +@#           ",
" $%&*=          ",
" -;>,'          ",
"  )!~           ",
"   {            ",
"   .            ",
"               .",
"  ]^/       (_: ",
" <[!}|     1234 ",
" 56789     0%%ab",
"  c!>d...  e;fg ",
"   h        5ij ",
"                "};
