/* XPM */ 
static const char * eye_xpm[] = {
"10 10 85 1",
" 	c None",
"!	c black",
"#	c #91A0C0",
"$	c #394D77",
"%	c #384B73",
"&	c #8390AB",
"'	c #566993",
"(	c #000528",
")	c #202A40",
"*	c #202B42",
"+	c #000A2A",
",	c #29385A",
"-	c #D1D8E4",
".	c #7283A6",
"0	c #1F2A41",
"1	c #AEB2B9",
"2	c #C5CBD7",
"3	c #C4CAD6",
"4	c #C2C8D1",
"5	c #586173",
"6	c #3F4C66",
"7	c #D7DFEB",
"8	c #ACB8D0",
"9	c #566178",
":	c #DBE2EB",
";	c #A8B6CF",
"<	c #7C88A1",
"=	c #7F8BA4",
">	c #9FACC5",
"?	c #F0F8FF",
"@	c #919BAD",
"A	c #909BAE",
"B	c #9AA6BC",
"C	c #C0CBDD",
"D	c #DAE5F6",
"E	c #627192",
"F	c #011848",
"G	c #011849",
"H	c #5F6E91",
"I	c #D2DDEE",
"J	c #CCD7EA",
"K	c #B3BED2",
"L	c #BDCAE0",
"M	c #C3D0E6",
"N	c #D1DDEF",
"O	c #627396",
"P	c #112754",
"Q	c #112755",
"R	c #5E6F93",
"S	c #CEDAED",
"T	c #C1CEE3",
"U	c #C3D0E5",
"V	c #AEBDD7",
"W	c #657698",
"X	c #CDDCF3",
"Y	c #97A7C5",
"Z	c #3D4F72",
"[	c #3F5073",
"]	c #8D9EBB",
"^	c #D8E6FC",
"_	c #9BACCA",
"`	c #A7B5CF",
"a	c #C5D7F3",
"b	c #5B6C8D",
"c	c #25385F",
"d	c #A8BCDE",
"e	c #7E92B6",
"f	c #7B8FB3",
"g	c #B6CBED",
"h	c #677CA6",
"i	c #576786",
"j	c #BBCDE9",
"k	c #B6CAEB",
"l	c #364463",
"m	c #000A30",
"n	c #2D436E",
"o	c #314773",
"p	c #0B1E46",
"q	c #2A3853",
"r	c #A8BAD8",
"s	c #B4CAEE",
"t	c #6B7B96",
"u	c #2D3A52",
"v	c #2E3B52",
"w	c #68768E",
"   #$%&   ",
"  '()*+,- ",
" .01234567",
"89:;<=>?@A",
"BCDEFGHIJK",
"LMNOPQRSTU",
"VWXYZ[]^_`",
"abcdefghij",
" klmnopqr ",
"  stuvw   "};
