/* XPM */
static const char * mActionCapturePoint_xpm[] = {
"32 31 133 2",
"  	c None",
". 	c #240202",
"+ 	c #3A0303",
"@ 	c #420101",
"# 	c #320000",
"$ 	c #380606",
"% 	c #680909",
"& 	c #880606",
"* 	c #980404",
"= 	c #A30202",
"- 	c #730101",
"; 	c #2F0000",
"> 	c #400404",
", 	c #700909",
"' 	c #6D0909",
") 	c #780808",
"! 	c #8B0606",
"~ 	c #9A0303",
"{ 	c #A50202",
"] 	c #850101",
"^ 	c #710505",
"/ 	c #750707",
"( 	c #7C0808",
"_ 	c #8E0606",
": 	c #9D0303",
"< 	c #A70202",
"[ 	c #460101",
"} 	c #820505",
"| 	c #7A0606",
"1 	c #730707",
"2 	c #6F0909",
"3 	c #810707",
"4 	c #920404",
"5 	c #A00303",
"6 	c #590101",
"7 	c #890303",
"8 	c #790606",
"9 	c #730909",
"0 	c #6E0909",
"a 	c #840707",
"b 	c #940404",
"c 	c #4F0202",
"d 	c #7C0101",
"e 	c #8A0404",
"f 	c #800505",
"g 	c #780707",
"h 	c #720707",
"i 	c #720909",
"j 	c #340202",
"k 	c #8B0202",
"l 	c #880404",
"m 	c #7E0606",
"n 	c #760707",
"o 	c #710909",
"p 	c #690909",
"q 	c #360505",
"r 	c #600101",
"s 	c #6E0404",
"t 	c #6B0505",
"u 	c #500606",
"v 	c #2F0303",
"w 	c #2A0202",
"x 	c #2D0202",
"y 	c #300505",
"z 	c #630707",
"A 	c #980303",
"B 	c #840202",
"C 	c #400000",
"D 	c #400505",
"E 	c #A80202",
"F 	c #480101",
"G 	c #290202",
"H 	c #730606",
"I 	c #950404",
"J 	c #A20202",
"K 	c #A20101",
"L 	c #2E0000",
"M 	c #4C0101",
"N 	c #770707",
"O 	c #710707",
"P 	c #740909",
"Q 	c #A40202",
"R 	c #220202",
"S 	c #450606",
"T 	c #720404",
"U 	c #860303",
"V 	c #6E0101",
"W 	c #380000",
"X 	c #4E0101",
"Y 	c #770808",
"Z 	c #440101",
"` 	c #2B0303",
" .	c #640909",
"..	c #490101",
"+.	c #8E0303",
"@.	c #860505",
"#.	c #7C0606",
"$.	c #2E0202",
"%.	c #650505",
"&.	c #A10202",
"*.	c #A30101",
"=.	c #5B0101",
"-.	c #840505",
";.	c #6B0909",
">.	c #390505",
",.	c #2D0000",
"'.	c #7D0505",
").	c #870606",
"!.	c #500101",
"~.	c #4B0101",
"{.	c #7C0303",
"].	c #710606",
"^.	c #5B0808",
"/.	c #2F0404",
"(.	c #340000",
"_.	c #8A0606",
":.	c #9A0404",
"<.	c #540101",
"[.	c #7B0808",
"}.	c #8D0606",
"|.	c #3E0303",
"1.	c #520000",
"2.	c #8F0303",
"3.	c #7B0707",
"4.	c #740707",
"5.	c #520606",
"6.	c #530101",
"7.	c #840303",
"8.	c #810505",
"9.	c #6B0808",
"0.	c #430707",
"a.	c #350202",
"b.	c #3B0101",
"                                                                ",
"            . + @ #                                             ",
"          $ % & * = - ;                                         ",
"        > , ' ) ! ~ { ]                                         ",
"        ^ / , ' ( _ : < [                                       ",
"      # } | 1 2 ' 3 4 5 6                                       ",
"        7 } 8 9 0 0 a b c                                       ",
"        d e f g h 0 i f j                                       ",
"          k l m n o p q                                         ",
"            r s t u v                                           ",
"                                                                ",
"                                                                ",
"                                                                ",
"                                                                ",
"                                                                ",
"                                                                ",
"                                                                ",
"          w x                                                   ",
"      y z e A B C                                               ",
"    D 0 ' 3 4 5 E F                                             ",
"  G H 9 2 2 a I J K L                                           ",
"  M f N O 0 P & * Q [                     R S T U V W           ",
"  X l m n o ' Y ! ~ Z                   `  .' 3 4 5 < ..        ",
"    +.@.#./ , ' ( } $.                  %.9 2 2 a I &.*.#       ",
"    =.+.-.| 1 2 ;.>.                  ,.'.g h 0 i ).* Q !.      ",
"      ~.{.'.].^./.                    (.l m n , ' Y _.:.<.      ",
"                                        k @.#./ , ' [.}.|.      ",
"                                        1.2.-.3.4.2 ' 5.        ",
"                                          6.7.8.| 9.0.          ",
"                                              a.b.              ",
"                                                                "};
