/* XPM */
static const char * mActionCapturePoint_26x25_xpm[] = {
"26 25 103 2",
"  	c None",
". 	c #500505",
"+ 	c #620303",
"@ 	c #670101",
"# 	c #5B0808",
"$ 	c #710808",
"% 	c #870606",
"& 	c #9A0303",
"* 	c #900202",
"= 	c #630101",
"- 	c #600404",
"; 	c #730707",
"> 	c #6F0909",
", 	c #770808",
"' 	c #8B0606",
") 	c #9D0303",
"! 	c #8C0202",
"~ 	c #750404",
"{ 	c #7B0606",
"] 	c #730808",
"^ 	c #790808",
"/ 	c #8F0505",
"( 	c #8D0303",
"_ 	c #7A0202",
": 	c #840505",
"< 	c #790606",
"[ 	c #720808",
"} 	c #6E0909",
"| 	c #7D0808",
"1 	c #7E0404",
"2 	c #5D0101",
"3 	c #880303",
"4 	c #820505",
"5 	c #780707",
"6 	c #6C0909",
"7 	c #550505",
"8 	c #5A0101",
"9 	c #6E0303",
"0 	c #700505",
"a 	c #600606",
"b 	c #450505",
"c 	c #490505",
"d 	c #640303",
"e 	c #6C0202",
"f 	c #510707",
"g 	c #660808",
"h 	c #840606",
"i 	c #950303",
"j 	c #5E0101",
"k 	c #500404",
"l 	c #700909",
"m 	c #730909",
"n 	c #8A0606",
"o 	c #9C0303",
"p 	c #9B0101",
"q 	c #450000",
"r 	c #7D0606",
"s 	c #740707",
"t 	c #780808",
"u 	c #8C0606",
"v 	c #540101",
"w 	c #3D0505",
"x 	c #5C0606",
"y 	c #7F0404",
"z 	c #800202",
"A 	c #5C0101",
"B 	c #650202",
"C 	c #860505",
"D 	c #7B0808",
"E 	c #8C0505",
"F 	c #4A0202",
"G 	c #480404",
"H 	c #690909",
"I 	c #710909",
"J 	c #820707",
"K 	c #960404",
"L 	c #A00202",
"M 	c #6A0101",
"N 	c #800303",
"O 	c #780606",
"P 	c #5E0606",
"Q 	c #6B0404",
"R 	c #750808",
"S 	c #700808",
"T 	c #860606",
"U 	c #8F0101",
"V 	c #750303",
"W 	c #7A0505",
"X 	c #6B0707",
"Y 	c #4E0707",
"Z 	c #780303",
"` 	c #740808",
" .	c #760808",
"..	c #8A0303",
"+.	c #780101",
"@.	c #7C0606",
"#.	c #730505",
"$.	c #790202",
"%.	c #7A0606",
"&.	c #5D0808",
"*.	c #430505",
"=.	c #5F0303",
"-.	c #5A0303",
"                                                    ",
"          . + @                                     ",
"        # $ % & * =                                 ",
"      - ; > , ' ) !                                 ",
"      ~ { ] > ^ / (                                 ",
"      _ : < [ } | 1                                 ",
"      2 3 4 5 $ 6 7                                 ",
"        8 9 0 a b                                   ",
"                                                    ",
"                                                    ",
"                                                    ",
"                                                    ",
"                                                    ",
"                                                    ",
"      c d e                                         ",
"    f g h i * j                                     ",
"  k $ l m n o p q                                   ",
"  d r s > t u ) v                 w x y z A         ",
"  B C { ] l D E F               G H I J K L M       ",
"    N : O $ l P                 Q R S m T & U       ",
"    v V W X Y                   Z r ` >  .n ..      ",
"                                +.C @.` > , #.      ",
"                                  $.4 %.S &.*.      ",
"                                    =.-..           ",
"                                                    "};
