/* XPM */
static const char * mActionToggleEditing_xpm[] = {
"16 15 48 1",
" 	c None",
".	c #4FA5E2",
"+	c #56A9E2",
"@	c #46A0DE",
"#	c #2C92D8",
"$	c #56A8E2",
"%	c #52A6E0",
"&	c #2B90D8",
"*	c #1A87D4",
"=	c #1383D0",
"-	c #49A2E0",
";	c #419DDC",
">	c #248DD6",
",	c #1484D1",
"'	c #1080CF",
")	c #0C7ECD",
"!	c #3B9CDF",
"~	c #4AA3E1",
"{	c #53A6E0",
"]	c #3496D9",
"^	c #1584D1",
"/	c #1081CF",
"(	c #0A7CCD",
"_	c #087BCB",
":	c #3C9CDF",
"<	c #53A7E1",
"[	c #4BA2DE",
"}	c #238CD5",
"|	c #1483D0",
"1	c #409EDE",
"2	c #53A6E1",
"3	c #3898D9",
"4	c #1B87D2",
"5	c #0D7FCE",
"6	c #087BCC",
"7	c #4D9FD7",
"8	c #4CA2DF",
"9	c #3093D7",
"0	c #067ACA",
"a	c #BFC4C7",
"b	c #87B3D2",
"c	c #228BD4",
"d	c #1181CF",
"e	c #0A7CCC",
"f	c #57A4DA",
"g	c #86AECA",
"h	c #869097",
"i	c #649CC2",
"                ",
"           .+@# ",
"          $%&*= ",
"        -+;>,') ",
"      !~{]^/(_  ",
"     :<[}|)     ",
"    123456      ",
"   789=)0       ",
"  abcde         ",
" fghi           ",
"                ",
"                ",
"                ",
"                ",
"                "};
