/* XPM */
static const char * mActionCapturePolygon_xpm[] = {
"26 25 130 2",
"  	c None",
". 	c #540303",
"+ 	c #5A0101",
"@ 	c #5F0808",
"# 	c #800606",
"$ 	c #940404",
"% 	c #810202",
"& 	c #680505",
"* 	c #720808",
"= 	c #710808",
"- 	c #7F0606",
"; 	c #8D0303",
"> 	c #600101",
", 	c #740404",
"' 	c #780606",
") 	c #700808",
"! 	c #730808",
"~ 	c #830505",
"{ 	c #610202",
"] 	c #090000",
"^ 	c #5B0202",
"/ 	c #800404",
"( 	c #750707",
"_ 	c #4C0303",
": 	c #030000",
"< 	c #000000",
"[ 	c #5D0404",
"} 	c #660202",
"| 	c #260000",
"1 	c #730202",
"2 	c #770505",
"3 	c #6B0707",
"4 	c #560707",
"5 	c #010000",
"6 	c #040000",
"7 	c #2D0404",
"8 	c #5D0707",
"9 	c #840505",
"0 	c #860202",
"a 	c #650101",
"b 	c #620808",
"c 	c #7F0707",
"d 	c #810101",
"e 	c #220000",
"f 	c #610606",
"g 	c #6C0808",
"h 	c #790808",
"i 	c #950404",
"j 	c #910202",
"k 	c #6B0606",
"l 	c #860505",
"m 	c #9A0303",
"n 	c #540101",
"o 	c #770606",
"p 	c #6F0808",
"q 	c #6A0808",
"r 	c #820707",
"s 	c #980303",
"t 	c #680101",
"u 	c #7B0404",
"v 	c #6A0707",
"w 	c #8B0505",
"x 	c #6F0202",
"y 	c #7E0303",
"z 	c #7A0606",
"A 	c #6D0707",
"B 	c #5D0303",
"C 	c #7B0202",
"D 	c #810505",
"E 	c #720707",
"F 	c #6D0808",
"G 	c #740808",
"H 	c #550404",
"I 	c #6E0202",
"J 	c #7D0404",
"K 	c #730606",
"L 	c #680808",
"M 	c #6B0303",
"N 	c #6F0505",
"O 	c #670707",
"P 	c #530707",
"Q 	c #4E0202",
"R 	c #3E0303",
"S 	c #3E0404",
"T 	c #1E0101",
"U 	c #220101",
"V 	c #020000",
"W 	c #0F0000",
"X 	c #070000",
"Y 	c #440202",
"Z 	c #440101",
"` 	c #5A0606",
" .	c #500101",
"..	c #4F0505",
"+.	c #8B0303",
"@.	c #7A0101",
"#.	c #5C0707",
"$.	c #6E0909",
"%.	c #800505",
"&.	c #8C0303",
"*.	c #750101",
"=.	c #670505",
"-.	c #6E0808",
";.	c #6B0808",
">.	c #670101",
",.	c #700909",
"'.	c #850404",
").	c #900202",
"!.	c #2E0101",
"~.	c #250101",
"{.	c #740505",
"].	c #760707",
"^.	c #930505",
"/.	c #690101",
"(.	c #770707",
"_.	c #760808",
":.	c #880505",
"<.	c #3F0101",
"[.	c #2E0000",
"}.	c #760202",
"|.	c #740707",
"1.	c #700606",
"2.	c #7F0303",
"3.	c #650707",
"4.	c #790303",
"5.	c #720505",
"6.	c #640606",
"7.	c #4D0606",
"8.	c #720303",
"9.	c #6C0505",
"                          . +                       ",
"                        @ # $ %                     ",
"                      & * = - ; >                   ",
"                      , ' ) ! ~ { ]                 ",
"                      ^ / ( ) ( _ : <               ",
"          [ }     < < | 1 2 3 4   5 6 7 8 9 0 a     ",
"        b c $ d e <                   f g h i j     ",
"      k = * l m n                     o p q r s t   ",
"      u ' v ) w x                     y z A ) - B   ",
"      C D E F G H                     I J K L 4     ",
"        M N O P                         Q R S       ",
"        T U                               V         ",
"        < <                               <         ",
"          <                                         ",
"                                          <         ",
"          <                               < <       ",
"        < <                               : :       ",
"        W X                               Y Z       ",
"      ` ^  .                          ..L z +.@.    ",
"    #.$.%.&.*.                        =.-.;.9 s >.  ",
"    K ,.A '.).!.5 < < < < <   < < < ~.{.E q ].^./.  ",
"    D (.-._.:.<.: < <               [.}.%.|.) 1.    ",
"    2.# G ,.3.                          4.5.6.7.    ",
"      8.9.`                                         ",
"                                                    "};
