/* XPM */ 
static const char * measure_xpm[] = {
"9 12 58 1",
" 	c None",
"!	c black",
"#	c #C7D0DA",
"$	c #405872",
"%	c #D1D9E0",
"&	c #C5CFD8",
"'	c #263C52",
"(	c #CFD7DE",
")	c #66717C",
"*	c #182A3D",
"+	c #68737E",
",	c #E4E5E6",
"-	c #3F5061",
".	c #D7E9FB",
"0	c #3F5060",
"1	c #E6E7E8",
"2	c #394858",
"3	c #1C2F43",
"4	c #394958",
"5	c #6E8296",
"6	c #374C62",
"7	c #D4D8DB",
"8	c #6E8297",
"9	c #D5DEE7",
":	c #203D5A",
";	c #B9C5D0",
"<	c #CAD9EB",
"=	c #7E94AA",
">	c #304C6A",
"?	c #ABC1DA",
"@	c #7A9EC5",
"A	c #ACC2DA",
"B	c #2F4B69",
"C	c #7E93A9",
"D	c #97B1D0",
"E	c #345170",
"F	c #5F7892",
"G	c #96B0CF",
"H	c #6389B5",
"I	c #637C97",
"J	c #365575",
"K	c #97B0CF",
"L	c #DFE5EA",
"M	c #2D4762",
"N	c #C5D0DA",
"O	c #94ADCA",
"P	c #AFBAC4",
"Q	c #283E55",
"R	c #E4EBF2",
"S	c #B9C4CF",
"T	c #39526A",
"U	c #D6DBE0",
"V	c #2A3F56",
"W	c #C0CDDA",
"X	c #EAEEF3",
"Y	c #8EA4BB",
"Z	c #8EA5BC",
"[	c #EAEEF2",
"   #$%   ",
"   &'(   ",
"   )*+   ",
"  ,-.01  ",
"   234   ",
"  56768  ",
" 9:; ;:9 ",
"<=>?@ABC<",
"DEFGHGIJK",
"LMN O PQR",
"ST    UVW",
"XY     Z["};
