/* XPM */
static const char * select_16x16_xpm[] = {
"16 16 206 2",
"  	c None",
". 	c #D7E1ED",
"+ 	c #B1BDCE",
"@ 	c #A8B4C7",
"# 	c #A6B4C7",
"$ 	c #A7B4C7",
"% 	c #A8B5C7",
"& 	c #ACB9CA",
"* 	c #D2DDE9",
"= 	c #B8C5D5",
"- 	c #D5DCE8",
"; 	c #E4E8F3",
"> 	c #DFE7F2",
", 	c #DEE6F2",
"' 	c #E1E7F2",
") 	c #DEE6F1",
"! 	c #E3E7F3",
"~ 	c #D0D6E1",
"{ 	c #A1B0BF",
"] 	c #ADBCCD",
"^ 	c #DDE7F1",
"/ 	c #DCE6F1",
"( 	c #DFEAF4",
"_ 	c #DFE9F4",
": 	c #DDE6F2",
"< 	c #DFE8F3",
"[ 	c #DFEAF5",
"} 	c #DDE7F2",
"| 	c #E1EBF5",
"1 	c #E4EAF3",
"2 	c #94A1B1",
"3 	c #AEBCCD",
"4 	c #DEE5F1",
"5 	c #E2EAF5",
"6 	c #9B9EA1",
"7 	c #929597",
"8 	c #D3DAE1",
"9 	c #A9ADB3",
"0 	c #858789",
"a 	c #808184",
"b 	c #A2A6AC",
"c 	c #CFD6DB",
"d 	c #747679",
"e 	c #7A7C80",
"f 	c #E8EDF5",
"g 	c #E4E8F2",
"h 	c #93A1B1",
"i 	c #B0BCCD",
"j 	c #E4E5F1",
"k 	c #E7E8F5",
"l 	c #97979B",
"m 	c #D0D2DD",
"n 	c #DCDEE9",
"o 	c #D9D9E4",
"p 	c #D2D1DC",
"q 	c #CFCED9",
"r 	c #D4D4E0",
"s 	c #DDDEE8",
"t 	c #CDCDD7",
"u 	c #727276",
"v 	c #E5E5F1",
"w 	c #E2E3EF",
"x 	c #909FB0",
"y 	c #AFBBCD",
"z 	c #E0E3F0",
"A 	c #E2E6F2",
"B 	c #B1B3BA",
"C 	c #D9E2EE",
"D 	c #DBE0EC",
"E 	c #DDDFEB",
"F 	c #DADDE9",
"G 	c #D8DBE7",
"H 	c #D9DBE8",
"I 	c #DCDEEA",
"J 	c #D7D7E4",
"K 	c #6B6B6F",
"L 	c #DCDDEB",
"M 	c #DEDEEC",
"N 	c #8F9DAF",
"O 	c #DBE5F1",
"P 	c #DCE0EE",
"Q 	c #DBE3EE",
"R 	c #DADFEC",
"S 	c #DCE4F1",
"T 	c #DBE3EF",
"U 	c #DCE5F0",
"V 	c #DCE3EF",
"W 	c #D7D7E6",
"X 	c #ABAAB5",
"Y 	c #D3D3E2",
"Z 	c #DADAE9",
"` 	c #8D9CAE",
" .	c #DCE5F1",
"..	c #A1A3AA",
"+.	c #D6D7E6",
"@.	c #DBE1EE",
"#.	c #DCE2EF",
"$.	c #DCE1EE",
"%.	c #DADAEA",
"&.	c #CDCDDC",
"*.	c #D4D4E4",
"=.	c #D9D9E8",
"-.	c #8D9BAE",
";.	c #E1EBF6",
">.	c #8D8E93",
",.	c #D4D4E3",
"'.	c #DBDDEC",
").	c #DCDDEC",
"!.	c #DCDCEC",
"~.	c #6F6F76",
"{.	c #DDDDEE",
"].	c #A9AAB3",
"^.	c #D4D6E4",
"/.	c #DDDFED",
"(.	c #DCDEED",
"_.	c #DCDFED",
":.	c #D7D8E5",
"<.	c #5A5A5F",
"[.	c #DEDEEE",
"}.	c #DADBEA",
"|.	c #AEBACC",
"1.	c #DEE1EE",
"2.	c #D8DCE9",
"3.	c #DDE5F0",
"4.	c #DFE0EF",
"5.	c #DDE4F0",
"6.	c #DBDEEB",
"7.	c #ABABB6",
"8.	c #D9D9E7",
"9.	c #DCDCEA",
"0.	c #8E9CAF",
"a.	c #B0BBCD",
"b.	c #E4E4F0",
"c.	c #E7E7F3",
"d.	c #9C9CA2",
"e.	c #E2E4F0",
"f.	c #E3E5F1",
"g.	c #E0E5F1",
"h.	c #DFE6F2",
"i.	c #E0E6F1",
"j.	c #E0E3EE",
"k.	c #D6D6E2",
"l.	c #DDDDE9",
"m.	c #E0E1EE",
"n.	c #909EB0",
"o.	c #AFBCCE",
"p.	c #E0E6F2",
"q.	c #E6ECF5",
"r.	c #86878A",
"s.	c #E5E6EC",
"t.	c #E2EBF6",
"u.	c #E7EFF9",
"v.	c #E7F0F9",
"w.	c #E3EBF6",
"x.	c #DEE8F3",
"y.	c #E0E4E9",
"z.	c #66666A",
"A.	c #E5ECF2",
"B.	c #E1E6F1",
"C.	c #92A0B1",
"D.	c #AFBCCD",
"E.	c #E0E9F2",
"F.	c #E6EDF6",
"G.	c #747578",
"H.	c #9C9CA1",
"I.	c #D4DCE2",
"J.	c #ADB4BC",
"K.	c #909398",
"L.	c #8C8F95",
"M.	c #A7AEB7",
"N.	c #CFD7DE",
"O.	c #838689",
"P.	c #444547",
"Q.	c #E8F0F3",
"R.	c #E6E9F4",
"S.	c #92A0B0",
"T.	c #B9C6D5",
"U.	c #D8DDE9",
"V.	c #E8EAF2",
"W.	c #ABACB4",
"X.	c #9B9BA1",
"Y.	c #D4D7DE",
"Z.	c #B3B5BD",
"`.	c #939399",
" +	c #8E8D94",
".+	c #ABADB5",
"++	c #D4D5DD",
"@+	c #8A8A91",
"#+	c #95959C",
"$+	c #E3E5ED",
"%+	c #CCD2DD",
"&+	c #A1AFBE",
"*+	c #D8E2EE",
"=+	c #95A4B5",
"-+	c #7F91A3",
";+	c #8495A7",
">+	c #8394A7",
",+	c #8090A3",
"'+	c #8596A8",
")+	c #8798AB",
"!+	c #8798AA",
"~+	c #8192A5",
"{+	c #8899AC",
"]+	c #7D8EA0",
"^+	c #8F9FAF",
"/+	c #D3DEEA",
". + @ # # $ # $ % % @ # # $ & * ",
"= - ; > , ' ) > ! ! ! , ) ; ~ { ",
"] ^ / ( _ : < [ [ < } | | } 1 2 ",
"3 4 5 6 7 8 9 0 a b c d e f g h ",
"i j k l m n o p q r s t u v w x ",
"y z A B C D E F G H I J K L M N ",
"] O / P Q R S T / U V W X Y Z ` ",
"]  .[ ..+.@.V #.#.V $.%.&.*.=.-.",
"]  .;.>.,.'.).!.!.!.!.W ~.{.%.-.",
"] / _ ].^.V /.(.(._._.:.<.[.}.` ",
"|.1.1.Z 2.3.4.5.U  .3.6.7.8.9.0.",
"a.b.c.d.n e.f.g.h.i.i.j.k.l.m.n.",
"o.p.q.r.s.p.t.u.v.w.x.y.z.A.B.C.",
"D.E.F.G.H.I.J.K.L.M.N.O.P.Q.R.S.",
"T.U.V.W.X.Y.Z.`. +.+++@+#+$+%+&+",
"*+=+-+;+>+,+'+)+!+;+~+{+'+]+^+/+"};
