/* XPM */ 
static const char * snapshot_xpm[] = {
"16 15 164 2",
"  	c None",
"! 	c black",
"# 	c #B2B2B1",
"$ 	c #B5B6B4",
"% 	c #B4B5B3",
"& 	c #7C7E7A",
"' 	c #9CA099",
"( 	c #9FA39C",
") 	c #999B94",
"* 	c #8A8A87",
"+ 	c #BEBFBE",
", 	c #C2C3C2",
"- 	c #C3C3C2",
". 	c #8D8F8C",
"0 	c #AFB3AB",
"1 	c #CACEC7",
"2 	c #BFC2BC",
"3 	c #BECAC3",
"4 	c #B8C1BB",
"5 	c #B4B4B0",
"6 	c #B3B4B1",
"7 	c #B4B5B2",
"8 	c #B4B6B2",
"9 	c #B3B4B0",
": 	c #B5B7B3",
"; 	c #AEAFAB",
"< 	c #8A8B88",
"= 	c #ADAEAC",
"> 	c #6F726D",
"? 	c #848782",
"@ 	c #858782",
"A 	c #B5BCB5",
"B 	c #C2A19B",
"C 	c #C5AEA8",
"D 	c #CCD4CE",
"E 	c #D2D4CE",
"F 	c #CACDC7",
"G 	c #C8CBC5",
"H 	c #D0D3CD",
"I 	c #CFD3CD",
"J 	c #C9CCC6",
"K 	c #D1D4CE",
"L 	c #838581",
"M 	c #7C7F7A",
"N 	c #B7BBB4",
"O 	c #999C96",
"P 	c #565753",
"Q 	c #90A09A",
"R 	c #E65C59",
"S 	c #D6716E",
"T 	c #ABBFB7",
"U 	c #8E8E88",
"V 	c #8B8F89",
"W 	c #8A8E88",
"X 	c #A4A7A1",
"Y 	c #BBBFB8",
"Z 	c #B9BDB6",
"[ 	c #80837E",
"] 	c #7D7E7B",
"^ 	c #8E908B",
"_ 	c #9CA09A",
"` 	c #626460",
"a 	c #969B94",
"b 	c #BDBEB6",
"c 	c #AAACA5",
"d 	c #828580",
"e 	c #999D97",
"f 	c #949790",
"g 	c #949791",
"h 	c #9A9D97",
"i 	c #878A84",
"j 	c #BDC1BA",
"k 	c #7D807B",
"l 	c #8C8D8A",
"m 	c #9FA29C",
"n 	c #A0A49E",
"o 	c #999C95",
"p 	c #B0B6AE",
"q 	c #80847F",
"r 	c #9EA29B",
"s 	c #989A98",
"t 	c #CFD1D2",
"u 	c #D9DBDB",
"v 	c #A2A5A4",
"w 	c #A6AAA2",
"x 	c #7B7E79",
"y 	c #929490",
"z 	c #A9ADA6",
"{ 	c #A3A7A1",
"| 	c #616460",
"} 	c #93968F",
"~ 	c #999D95",
" !	c #878983",
"!!	c #8E928E",
"#!	c #B4C1CF",
"$!	c #CFDEED",
"%!	c #C9D8E6",
"&!	c #C8D7E7",
"'!	c #8B9293",
"(!	c #8F928B",
")!	c #8C9089",
"*!	c #7B7E78",
"+!	c #7F807D",
",!	c #848681",
"-!	c #626560",
".!	c #848881",
"0!	c #90948C",
"1!	c #7D7F79",
"2!	c #808583",
"3!	c #92AFCE",
"4!	c #9EBDDE",
"5!	c #9CB9D7",
"6!	c #9CBDE0",
"7!	c #7E898F",
"8!	c #83847D",
"9!	c #767973",
":!	c #80827D",
";!	c #A4A8A2",
"<!	c #5E615D",
"=!	c #73766F",
">!	c #8F938A",
"?!	c #7C7D76",
"@!	c #687B8B",
"A!	c #749DCA",
"B!	c #76A1CF",
"C!	c #6884A0",
"D!	c #797B77",
"E!	c #70726E",
"F!	c #858981",
"G!	c #6F726C",
"H!	c #90928F",
"I!	c #7F827C",
"J!	c #646661",
"K!	c #7B7F76",
"L!	c #868A80",
"M!	c #6B6D69",
"N!	c #787772",
"O!	c #6F7577",
"P!	c #6E767B",
"Q!	c #767671",
"R!	c #6F716C",
"S!	c #878B81",
"T!	c #686A64",
"U!	c #666864",
"V!	c #4C5049",
"W!	c #5A5E57",
"X!	c #5B5E57",
"Y!	c #595C55",
"Z!	c #5B5F58",
"[!	c #555852",
"]!	c #4F524E",
"^!	c #595A54",
"_!	c #5A5B54",
"`!	c #525550",
"a!	c #51544E",
"b!	c #5C6058",
"c!	c #565A52",
"d!	c #676965",
"e!	c #AAABA9",
"f!	c #ABACAA",
"g!	c #ABABAA",
"h!	c #ACADAB",
"i!	c #A9AAA8",
"j!	c #AAACAA",
"                                ",
"      # $ %                     ",
"    & ' ( ) * + , , , - - , ,   ",
"  . 0 1 2 3 4 5 6 7 8 9 6 : ; < ",
"= > ? @ A B C D E F G H I J K L ",
"M N O P Q R S T U V V W X Y Z [ ",
"] ^ _ ` a b c d e f g h i h j k ",
"l m n ` o p q r s t u v ( d w x ",
"y z { | } ~  !!!#!$!%!&!'!(!)!*!",
"+!,!O -!.!0!1!2!3!4!5!6!7!8!.!9!",
":!j ;!<!=!>!> ?!@!A!B!C!D!E!F!G!",
"H!I!M J!K!L!K!M!N!O!P!Q!R!=!S!T!",
"  U!V!W!X!Y!Z![!]!^!_!`!a!b!c!d!",
"    e!f!g!f!e!h!h!i!i!f!= e!j!  ",
"                                "};
