/* XPM */
static const char * capture_polygon_16x16_xpm[] = {
"16 16 63 1",
" 	c None",
".	c #6F0404",
"+	c #660101",
"@	c #700707",
"#	c #760707",
"$	c #8D0303",
"%	c #800505",
"&	c #710808",
"*	c #7D0606",
"=	c #280101",
"-	c #670404",
";	c #010000",
">	c #660202",
",	c #730606",
"'	c #5A0707",
")	c #080101",
"!	c #5B0707",
"~	c #880404",
"{	c #670101",
"]	c #690707",
"^	c #7B0707",
"/	c #940202",
"(	c #1F0000",
"_	c #5A0303",
":	c #6F0808",
"<	c #7A0707",
"[	c #960202",
"}	c #6B0808",
"|	c #850606",
"1	c #7E0505",
"2	c #6D0808",
"3	c #7A0606",
"4	c #740303",
"5	c #700606",
"6	c #620808",
"7	c #650202",
"8	c #540505",
"9	c #1D0101",
"0	c #000000",
"a	c #070000",
"b	c #3A0202",
"c	c #220000",
"d	c #570707",
"e	c #660303",
"f	c #5C0707",
"g	c #780707",
"h	c #8A0303",
"i	c #420303",
"j	c #700808",
"k	c #730707",
"l	c #960303",
"m	c #7C0505",
"n	c #6E0808",
"o	c #810606",
"p	c #4E0101",
"q	c #3C0101",
"r	c #7C0606",
"s	c #810505",
"t	c #7B0303",
"u	c #790707",
"v	c #6E0909",
"w	c #6A0505",
"x	c #490606",
"        .+      ",
"       @#$      ",
"       %&*=     ",
"   -  ;>,' )!~{ ",
"  ]^/(     _:<[ ",
"  %}|       123 ",
"  456       78  ",
"   9         ;  ",
"   0            ",
"             0  ",
"   0         a  ",
"  bc        de  ",
" fgh       ijkl ",
" mnop000  0qrns ",
" tuv        4wx ",
"                "};
