/* XPM */ 
static const char * down_arrow_xpm[] = {
"10 10 86 1",
" 	c None",
"!	c black",
"#	c #E3E4E4",
"$	c #D3D2D0",
"%	c #C8C7C9",
"&	c #A9A9B0",
"'	c #A3A3AC",
"(	c #BEBDC2",
")	c #D4D2D3",
"*	c #DCDBDC",
"+	c #CDCFD6",
",	c #4D5B79",
"-	c #102252",
".	c #081C49",
"0	c #354468",
"1	c #A4A9B9",
"2	c #BFC5CF",
"3	c #091849",
"4	c #00023A",
"5	c #2D3B64",
"6	c #435372",
"7	c #00083C",
"8	c #00053B",
"9	c #838CA1",
":	c #344169",
";	c #000238",
"<	c #000136",
"=	c #8D94A7",
">	c #CBCDD6",
"?	c #000739",
"@	c #000A3D",
"A	c #091444",
"B	c #CCD0D7",
"C	c #C5CAD1",
"D	c #000D41",
"E	c #54647E",
"F	c #1E305A",
"G	c #7F8AA2",
"H	c #C0C7CF",
"I	c #0B1D47",
"J	c #687291",
"K	c #000C41",
"L	c #7A819B",
"M	c #B3B6C4",
"N	c #000A3A",
"O	c #B2BAC5",
"P	c #E5E7EB",
"Q	c #B6BAC6",
"R	c #CDD1D8",
"S	c #C3C8CF",
"T	c #E6EAEC",
"U	c #061A4A",
"V	c #5F6A87",
"W	c #CACCD5",
"X	c #2C3D66",
"Y	c #546580",
"Z	c #C3C7CD",
"[	c white",
"]	c #FFFFFE",
"^	c #E1E4EA",
"_	c #66748F",
"`	c #2D3D66",
"a	c #868DA3",
"b	c #737D93",
"c	c #7C88A2",
"d	c #7F89A0",
"e	c #D2D6DC",
"f	c #EAEBF0",
"g	c #8590A7",
"h	c #8790AB",
"i	c #5E6985",
"j	c #D8DADF",
"k	c #DEE1E5",
"l	c #8A91A4",
"m	c #A1A9BB",
"n	c #B0B7C6",
"o	c #B3BAC8",
"p	c #A7B0C3",
"q	c #8A91A7",
"r	c #BCC0C8",
"s	c #E6E7E9",
"t	c #AAAFB7",
"u	c #A0A8B5",
"v	c #A0A7BA",
"w	c #A3A8BA",
"x	c #D0D3DB",
" #$%&'()* ",
"  +,-.01  ",
" 23456789 ",
" :;<=>?@AB",
"CDEFGHIJKL",
"MNOPQRSTUV",
"WXYZ[]^_`a",
" bcdefghij",
" klmnopqr ",
"  stuvwx  "};
