/* XPM */
static const char *clear_xpm[] = {
/* width height num_colors chars_per_pixel */
"    15    15      256            2",
/* colors */
"`` c #bc8b34",
"`. c #c1954b",
"`# c #c19444",
"`a c #fdfcfa",
"`b c #fefefd",
"`c c #fffffe",
"`d c #ffffff",
"`e c #b58024",
"`f c #cdb27d",
"`g c #aa6600",
"`h c #e1cdaa",
"`i c #fefcf9",
"`j c #c0954b",
"`k c #a76300",
"`l c #b0700c",
"`m c #b98833",
"`n c #fefffd",
"`o c #fffefe",
"`p c #f9f8f3",
"`q c #b68737",
"`r c #a76906",
"`s c #a26305",
"`t c #dac4a7",
"`u c #f4e7bc",
"`v c #faf4d9",
"`w c #f2ece5",
"`x c #a46e1d",
"`y c #ad7308",
"`z c #d9b82d",
"`A c #e8d91b",
"`B c #dfcd89",
"`C c #fbfcfd",
"`D c #fefefa",
"`E c #fefefe",
"`F c #fefdfc",
"`G c #f8efc8",
"`H c #ead35f",
"`I c #f5eb51",
"`J c #ecde52",
"`K c #cf883a",
"`L c #bc1b13",
"`M c #c8757f",
"`N c #fcffff",
"`O c #fffefd",
"`P c #fefdfd",
"`Q c #f1df9e",
"`R c #efda5e",
"`S c #e1a15c",
"`T c #df4e47",
"`U c #ef3846",
"`V c #e14f43",
"`W c #e09f55",
"`X c #fef2ae",
"`Y c #faf7f6",
"`Z c #fffefc",
"`0 c #fffdfd",
"`1 c #c25350",
"`2 c #d70d18",
"`3 c #dc493e",
"`4 c #8b4f2f",
"`5 c #ccc25e",
"`6 c #acac56",
"`7 c #bfaf4a",
"`8 c #ffec7b",
".` c #f7f0de",
".. c #e3bdc2",
".# c #ce7d50",
".a c #a59a38",
".b c #777931",
".c c #7b722e",
".d c #7a6f2c",
".e c #756d2f",
".f c #afa43f",
".g c #fce65a",
".h c #f7ecc4",
".i c #fdfeff",
".j c #ffffc2",
".k c #b8a62a",
".l c #998b33",
".m c #a29532",
".n c #93882e",
".o c #94882e",
".p c #a69934",
".q c #968b2f",
".r c #f0dc40",
".s c #fcec9f",
".t c #f9f8fe",
".u c #fdf1cc",
".v c #dac22a",
".w c #988b26",
".x c #a79828",
".y c #c0af2d",
".z c #83771e",
".A c #a89929",
".B c #d4c132",
".C c #857a22",
".D c #d3c024",
".E c #ffe966",
".F c #f7eec6",
".G c #fbf8f6",
".H c #f0d63f",
".I c #9c8e19",
".J c #988a1e",
".K c #cfbb27",
".L c #a89820",
".M c #90831b",
".N c #a99a21",
".O c #f0e231",
".P c #8d8220",
".Q c #a7980a",
".R c #eace36",
".S c #feffff",
".T c #fce884",
".U c #a69205",
".V c #a3931c",
".W c #948616",
".X c #e4ce21",
".Y c #8f8118",
".Z c #a39318",
".0 c #9b8b0d",
".1 c #f5dc14",
".2 c #bcaa5c",
".3 c #efebe2",
".4 c #fef9e9",
".5 c #d5bc23",
".6 c #8a7c09",
".7 c #a49310",
".8 c #a3930d",
"#` c #b09c05",
"#. c #a18e0a",
"## c #b6a33e",
"#a c #e0d5b1",
"#b c #fefefc",
"#c c #feefb1",
"#d c #a18c06",
"#e c #95850a",
"#f c #9e8a16",
"#g c #d5c058",
"#h c #ddd4b3",
"#i c #fdfefd",
"#j c #000000",
"#k c #000000",
"#l c #000000",
"#m c #000000",
"#n c #000000",
"#o c #000000",
"#p c #000000",
"#q c #000000",
"#r c #000000",
"#s c #000000",
"#t c #000000",
"#u c #000000",
"#v c #000000",
"#w c #000000",
"#x c #000000",
"#y c #000000",
"#z c #000000",
"#A c #000000",
"#B c #000000",
"#C c #000000",
"#D c #000000",
"#E c #000000",
"#F c #000000",
"#G c #000000",
"#H c #000000",
"#I c #000000",
"#J c #000000",
"#K c #000000",
"#L c #000000",
"#M c #000000",
"#N c #000000",
"#O c #000000",
"#P c #000000",
"#Q c #000000",
"#R c #000000",
"#S c #000000",
"#T c #000000",
"#U c #000000",
"#V c #000000",
"#W c #000000",
"#X c #000000",
"#Y c #000000",
"#Z c #000000",
"#0 c #000000",
"#1 c #000000",
"#2 c #000000",
"#3 c #000000",
"#4 c #000000",
"#5 c #000000",
"#6 c #000000",
"#7 c #000000",
"#8 c #000000",
"a` c #000000",
"a. c #000000",
"a# c #000000",
"aa c #000000",
"ab c #000000",
"ac c #000000",
"ad c #000000",
"ae c #000000",
"af c #000000",
"ag c #000000",
"ah c #000000",
"ai c #000000",
"aj c #000000",
"ak c #000000",
"al c #000000",
"am c #000000",
"an c #000000",
"ao c #000000",
"ap c #000000",
"aq c #000000",
"ar c #000000",
"as c #000000",
"at c #000000",
"au c #000000",
"av c #000000",
"aw c #000000",
"ax c #000000",
"ay c #000000",
"az c #000000",
"aA c #000000",
"aB c #000000",
"aC c #000000",
"aD c #000000",
"aE c #000000",
"aF c #000000",
"aG c #000000",
"aH c #000000",
"aI c #000000",
"aJ c #000000",
"aK c #000000",
"aL c #000000",
"aM c #000000",
"aN c #000000",
"aO c #000000",
"aP c #000000",
"aQ c #000000",
"aR c #000000",
"aS c #000000",
"aT c #000000",
"aU c #000000",
"aV c #000000",
"aW c #000000",
"aX c #000000",
"aY c #000000",
"aZ c #000000",
"a0 c #000000",
"a1 c #000000",
"a2 c #000000",
"a3 c #000000",
"a4 c #000000",
"a5 c #000000",
"a6 c #000000",
"a7 c #000000",
"a8 c #000000",
/* pixels */
"```.`#`a`b`c`d`d`d`d`d`d`d`d`d",
"`e`f`g`h`d`i`c`d`d`d`d`d`d`d`d",
"`j`k`l`m`n`d`d`o`d`d`d`d`d`d`d",
"`p`q`r`s`t`u`v`d`b`d`d`d`d`d`d",
"`d`w`x`y`z`A`B`C`D`E`d`d`d`d`d",
"`F`G`H`I`J`K`L`M`N`o`O`d`d`d`d",
"`P`Q`R`S`T`U`V`W`X`Y`d`Z`d`d`d",
"`0`N`1`2`3`4`5`6`7`8.``d`Z`d`d",
"`P`Z...#.a.b.c.d.e.f.g.h.i`c`O",
"`d`Z`d.j.k.l.m.n.o.p.q.r.s.t`d",
"`d`O`P.u.v.w.x.y.z.A.B.C.D.E.F",
"`d`c`d.G.H.I.J.K.L.M.N.O.P.Q.R",
"`d`d`Z.S.T.U.V.W.X.Y.Z.0.1.2.3",
"`d`d`o`c.4.5.6.7.8#`#.###a`d`d",
"`d`d`d#b`d#c#d#e#f#g#h`d`d#i`E"
};
