/* XPM */
static const char * geometry_null_16x16_xpm[] = {
"16 16 163 2",
"  	c None",
". 	c #0E0101",
"+ 	c #150202",
"@ 	c #170101",
"# 	c #130101",
"$ 	c #0F0303",
"% 	c #3F0606",
"& 	c #6D0606",
"* 	c #8A0404",
"= 	c #960303",
"- 	c #8B0202",
"; 	c #650101",
"> 	c #250101",
", 	c #200404",
"' 	c #661C1C",
") 	c #903D3D",
"! 	c #810808",
"~ 	c #8D0505",
"{ 	c #970404",
"] 	c #9F0303",
"^ 	c #B02222",
"/ 	c #AC2F2F",
"( 	c #430101",
"_ 	c #1D0303",
": 	c #640808",
"< 	c #7B1F1F",
"[ 	c #E8DCDC",
"} 	c #A55A5A",
"| 	c #850707",
"1 	c #900505",
"2 	c #9E1010",
"3 	c #E9CFCF",
"4 	c #CC7070",
"5 	c #A50101",
"6 	c #3C0101",
"7 	c #590606",
"8 	c #730707",
"9 	c #700909",
"0 	c #AB7373",
"a 	c #E7DADA",
"b 	c #841818",
"c 	c #870606",
"d 	c #C78585",
"e 	c #E7CDCD",
"f 	c #A70C0C",
"g 	c #A90202",
"h 	c #960101",
"i 	c #190000",
"j 	c #270202",
"k 	c #780707",
"l 	c #760707",
"m 	c #710808",
"n 	c #741010",
"o 	c #DBC6C6",
"p 	c #BE8F8F",
"q 	c #943434",
"r 	c #F1E9E9",
"s 	c #B04646",
"t 	c #9E0303",
"u 	c #A50202",
"v 	c #AA0101",
"w 	c #490101",
"x 	c #430303",
"y 	c #7E0606",
"z 	c #790606",
"A 	c #740707",
"B 	c #8F4141",
"C 	c #EFE9E9",
"D 	c #DEC9C9",
"E 	c #CDA0A0",
"F 	c #8E0606",
"G 	c #980404",
"H 	c #A00303",
"I 	c #A70202",
"J 	c #730101",
"K 	c #550303",
"L 	c #830505",
"M 	c #7D0606",
"N 	c #770707",
"O 	c #D7C0C0",
"P 	c #F5F3F3",
"Q 	c #892828",
"R 	c #9A0404",
"S 	c #A20303",
"T 	c #820202",
"U 	c #110101",
"V 	c #560202",
"W 	c #880505",
"X 	c #810505",
"Y 	c #7B0606",
"Z 	c #8E3838",
"` 	c #EEE7E7",
" .	c #EBE2E2",
"..	c #A96C6C",
"+.	c #7C0808",
"@.	c #880606",
"#.	c #930404",
"$.	c #9C0303",
"%.	c #7D0202",
"&.	c #120101",
"*.	c #460202",
"=.	c #8D0404",
"-.	c #860505",
";.	c #7F0606",
">.	c #7D0C0C",
",.	c #D8BDBD",
"'.	c #C09595",
").	c #A36363",
"!.	c #EAE1E1",
"~.	c #802222",
"{.	c #7F0707",
"].	c #8C0606",
"^.	c #950404",
"/.	c #650303",
"(.	c #260101",
"_.	c #900303",
":.	c #8B0404",
"<.	c #840505",
"[.	c #AE6666",
"}.	c #E9DDDD",
"|.	c #7F1B1B",
"1.	c #730C0C",
"2.	c #D4B9B9",
"3.	c #C49E9E",
"4.	c #760A0A",
"5.	c #830707",
"6.	c #380303",
"7.	c #910303",
"8.	c #941C1C",
"9.	c #ECE0E0",
"0.	c #AA5F5F",
"a.	c #893434",
"b.	c #EFEAEA",
"c.	c #914545",
"d.	c #790808",
"e.	c #660606",
"f.	c #120202",
"g.	c #180000",
"h.	c #7F0202",
"i.	c #C68484",
"j.	c #D6AFAF",
"k.	c #820808",
"l.	c #720808",
"m.	c #B68585",
"n.	c #D1B5B5",
"o.	c #630A0A",
"p.	c #1F0404",
"q.	c #1D0000",
"r.	c #710202",
"s.	c #8A0303",
"t.	c #850505",
"u.	c #7A0707",
"v.	c #750707",
"w.	c #700808",
"x.	c #570808",
"y.	c #1C0505",
"z.	c #370101",
"A.	c #5D0303",
"B.	c #6F0505",
"C.	c #6B0606",
"D.	c #560606",
"E.	c #310505",
"F.	c #100202",
"            . + @ #             ",
"        $ % & * = - ; >         ",
"      , ' ) ! ~ { ] ^ / (       ",
"    _ : < [ } | 1 2 3 4 5 6     ",
"    7 8 9 0 a b c d e f g h i   ",
"  j k l m n o p q r s t u v w   ",
"  x y z A m B C D E F G H I J   ",
"  K L M N 8 9 O P Q | 1 R S T U ",
"  V W X Y l Z `  ...+.@.#.$.%.&.",
"  *.=.-.;.>.,.'.).!.~.{.].^./.  ",
"  (._.:.<.[.}.|.1.2.3.4.5.~ 6.  ",
"    ; 7.8.9.0.k 8 a.b.c.d.e.f.  ",
"    g.h.i.j.k.Y l l.m.n.o.p.    ",
"      q.r.s.t.;.u.v.w.x.y.      ",
"          z.A.B.C.D.E.F.        ",
"                                "};
