/* XPM */ 
static const char * gnome_clear_xpm[] = {
"15 15 115 2",
"  	c None",
"! 	c black",
"# 	c #B8A78E",
"$ 	c #996B1F",
"% 	c #AF7822",
"& 	c #B0761B",
"' 	c #BEB2A0",
"( 	c #AF6B04",
") 	c #A49171",
"* 	c #AC8E5F",
"+ 	c #B7750D",
", 	c #AA7728",
"- 	c #D6962F",
". 	c #BD8B3B",
"0 	c #C3831E",
"1 	c #AC9572",
"2 	c #B5A083",
"3 	c #D3932F",
"4 	c #DAA044",
"5 	c #D8942A",
"6 	c #B29059",
"7 	c #AA834B",
"8 	c #D69A49",
"9 	c #D69A47",
": 	c #B7925A",
"; 	c #CDC5D4",
"< 	c #BCAD5A",
"= 	c #D6CF5E",
"> 	c #D0C04B",
"? 	c #CEB349",
"@ 	c #B29143",
"A 	c #DBD6D8",
"B 	c #A58295",
"C 	c #B48E97",
"D 	c #C7A793",
"E 	c #D7BF8C",
"F 	c #E5D671",
"G 	c #CDC44E",
"H 	c #D1CEB5",
"I 	c #CFC45E",
"J 	c #E2CE5A",
"K 	c #D6BD74",
"L 	c #C1A484",
"M 	c #B69397",
"N 	c #BC99AA",
"O 	c #BEA299",
"P 	c #C7C39A",
"Q 	c #D6C83E",
"R 	c #F7E846",
"S 	c #FBED4D",
"T 	c #FBEC44",
"U 	c #F9EB44",
"V 	c #EFE04E",
"W 	c #DCC65E",
"X 	c #B2A198",
"Y 	c #C2BC8C",
"Z 	c #DCCB32",
"[ 	c #F8E643",
"] 	c #F1DF49",
"^ 	c #EEDA44",
"_ 	c #F0DC47",
"` 	c #F1DF46",
"a 	c #F2E242",
"b 	c #FAEA34",
"c 	c #C5BB4B",
"d 	c #CAC385",
"e 	c #E3D028",
"f 	c #F5E23A",
"g 	c #EDDA3C",
"h 	c #EDDA39",
"i 	c #EEDB39",
"j 	c #EEDC39",
"k 	c #EDDB39",
"l 	c #EBD83B",
"m 	c #F4E13C",
"n 	c #C7B83C",
"o 	c #B7AB49",
"p 	c #CFBD19",
"q 	c #CBBB30",
"r 	c #EBD732",
"s 	c #E7D52E",
"t 	c #ECD92F",
"u 	c #EBD72F",
"v 	c #EBD82F",
"w 	c #E9D72F",
"x 	c #E9D630",
"y 	c #F2DD2B",
"z 	c #C2B43C",
"{ 	c #CDC898",
"| 	c #8A8130",
"} 	c #CEBA09",
"~ 	c #F5DF23",
" !	c #F1DC28",
"!!	c #E4D027",
"#!	c #E7D326",
"$!	c #E6D225",
"%!	c #EAD625",
"&!	c #E8D326",
"'!	c #EDD71A",
"(!	c #BAAF4E",
")!	c #C1B869",
"*!	c #D0BE21",
"+!	c #AE9D0A",
",!	c #C7B30C",
"-!	c #F1DA16",
".!	c #ECD719",
"0!	c #DDC916",
"1!	c #E7D11D",
"2!	c #D9C407",
"3!	c #B7AB4C",
"4!	c #C2B124",
"5!	c #C5B213",
"6!	c #877A1B",
"7!	c #DAC40C",
"8!	c #BBAC29",
"                      # $ % & ",
"                    ' ( ) * + ",
"                    , - . 0 1 ",
"                  2 3 4 5 6   ",
"                  7 8 9 :     ",
"            ; < = > ? @       ",
"          A B C D E F G       ",
"        H I J K L M N O       ",
"      P Q R S T U V W X       ",
"    Y Z [ ] ^ _ ` a b c       ",
"  d e f g h i j k l m n       ",
"o p q r s t u v w x y z       ",
"{ | } ~  !!!#!$!%!&!'!(!      ",
"    )!*!+!,!-!.!0!1!2!        ",
"          3!4!5!6!7!8!        "};
