/* XPM */ 
static const char * layers_16x16_xpm[] = {
/* columns rows colors chars-per-pixel */
"15 15 174 2",
"  	c None",
"! 	c black",
"# 	c #D0DDE8",
"$ 	c #D4E2EB",
"% 	c #E5EEF6",
"& 	c #DEE7F1",
"' 	c #D1DEE9",
"( 	c #D7E3EA",
") 	c #EEF7FB",
"* 	c #EEF6FA",
"+ 	c #E6EFF5",
", 	c #DEE9F1",
"- 	c #DAE4EE",
". 	c #DAE4EF",
"0 	c #D7E3ED",
"1 	c #E5EFF4",
"2 	c #F6FBFE",
"3 	c #EFF7FB",
"4 	c #EAF4F9",
"5 	c #E6F0F7",
"6 	c #E3EDF3",
"7 	c #DBE6EE",
"8 	c #D4DFEA",
"9 	c #D2DEEA",
": 	c #E2ECF4",
"; 	c #F8FEFF",
"< 	c #EDF4F9",
"= 	c #EAF3F8",
"> 	c #E7F1F7",
"? 	c #E4EDF4",
"@ 	c #DFEAF1",
"A 	c #DBE5EF",
"B 	c #D5E2EC",
"C 	c #CEDCE7",
"D 	c #C4D4E0",
"E 	c #CDDEEA",
"F 	c #D3E0EC",
"G 	c #C3D2DE",
"H 	c #BCCCD8",
"I 	c #E4EDF2",
"J 	c #F3FAFE",
"K 	c #F4FAFE",
"L 	c #EBF4F9",
"M 	c #E4EFF5",
"N 	c #E2EBF1",
"O 	c #DDE8F0",
"P 	c #DAE2EE",
"Q 	c #D3E1EB",
"R 	c #CFDBE5",
"S 	c #D4E2ED",
"T 	c #C2D4E1",
"U 	c #5E7183",
"V 	c #DCE5F0",
"W 	c #B0C2D0",
"X 	c #98ACBC",
"Y 	c #B5C7D5",
"Z 	c #DAE5EE",
"[ 	c #EAF3FB",
"] 	c #E9F3FA",
"^ 	c #E2ECF2",
"_ 	c #DBE6EF",
"` 	c #D8E2ED",
"a 	c #D0DEE8",
"b 	c #D6E4EE",
"c 	c #CDDFEB",
"d 	c #556069",
"e 	c #697682",
"f 	c #D2DCE7",
"g 	c #ABBFCF",
"h 	c #98AFC1",
"i 	c #8BA3B6",
"j 	c #96ABBB",
"k 	c #AFC1D0",
"l 	c #CFDCE7",
"m 	c #E2EDF4",
"n 	c #E0EBF4",
"o 	c #D5E2EB",
"p 	c #DAE6F1",
"q 	c #CDDEEB",
"r 	c #53626D",
"s 	c #4A5864",
"t 	c #ABBAC8",
"u 	c #C0CDD8",
"v 	c #859AAC",
"w 	c #8DA3B6",
"x 	c #9CB2C5",
"y 	c #9BB1C3",
"z 	c #8DA4B7",
"{ 	c #91A7B9",
"| 	c #A8BBCA",
"} 	c #C8D7E2",
"~ 	c #DBE8F1",
" !	c #D1E1ED",
"!!	c #505D67",
"#!	c #4A5763",
"$!	c #8095A6",
"%!	c #4E5A66",
"&!	c #E2ECF6",
"'!	c #BCCBD7",
"(!	c #8096A7",
")!	c #7A90A3",
"*!	c #8CA3B7",
"+!	c #9EB4C7",
",!	c #9CB3C6",
"-!	c #90A7B9",
".!	c #A8BDCC",
"0!	c #586773",
"1!	c #41515D",
"2!	c #869AAA",
"3!	c #3D454D",
"4!	c #A2ACB5",
"5!	c #C4D0DC",
"6!	c #96AEC0",
"7!	c #9DB4C8",
"8!	c #94A9BB",
"9!	c #7F94A7",
":!	c #7890A3",
";!	c #89A0B2",
"<!	c #9EB4C8",
"=!	c #9FB6C9",
">!	c #8DA5B8",
"?!	c #6C8193",
"@!	c #7A8E9D",
"A!	c #333B42",
"B!	c #728494",
"C!	c #8EA0AF",
"D!	c #CAD5E0",
"E!	c #8FA2B2",
"F!	c #8096A9",
"G!	c #91A9BD",
"H!	c #A1B7CB",
"I!	c #96ACBF",
"J!	c #7C93A5",
"K!	c #74899C",
"L!	c #899FB1",
"M!	c #A6BCCF",
"N!	c #283038",
"O!	c #6F808F",
"P!	c #6B7F90",
"Q!	c #4D5860",
"R!	c #DBE4F0",
"S!	c #B8C6D3",
"T!	c #8B9EB0",
"U!	c #7F97AA",
"V!	c #92AABE",
"W!	c #A3B9CC",
"X!	c #97ADBE",
"Y!	c #778DA1",
"Z!	c #323E48",
"[!	c #697884",
"]!	c #718595",
"^!	c #3F454A",
"_!	c #C3CCD7",
"`!	c #B8C6D2",
"a!	c #8B9FAF",
"b!	c #7D94A6",
"c!	c #A5BCCF",
"d!	c #95ACBF",
"e!	c #8EA5B6",
"f!	c #6A7B88",
"g!	c #343A3E",
"h!	c #BEC8D2",
"i!	c #DBE5F0",
"j!	c #B7C3D1",
"k!	c #889BAB",
"l!	c #738899",
"m!	c #262E36",
"n!	c #B5BEC8",
"o!	c #DEE6F1",
"p!	c #BECAD5",
"q!	c #8D9DAE",
"r!	c #404D58",
"s!	c #A8B1BA",
"t!	c #EFF8FF",
"        # $ % &               ",
"      ' ( ) * + , - .         ",
"    0 1 2 3 4 5 6 7 8 9       ",
"  : ;   < = > ? @ A B C D E F ",
"G H I J K L M N O P Q R S T U ",
"V W X Y Z [ ] ^ _ ` a b c d e ",
"f g h i j k l m n o p q r s t ",
"u v w x y z { | } ~  !!!#!$!%!",
"&!'!(!)!*!+!,!*!-!.!0!1!2!3!4!",
"5!6!7!8!9!:!;!<!=!>!?!@!A!B!C!",
"D!E!F!G!H!I!J!K!L!M!-!N!O!P!Q!",
"  R!S!T!U!V!W!X!9!Y!Z![!]!^!_!",
"      - `!a!b!G!c!d!e!f!g!h!  ",
"          i!j!k!b!,!l!m!n!    ",
"              o!p!q!r!s!t!    "};
