/* XPM */ 
static const char * log_icon_xpm[] = {
"16 16 131 2",
"  	c None",
"! 	c black",
"# 	c #CCD4D9",
"$ 	c #A7B6BF",
"% 	c #AFBEC6",
"& 	c #B5C3CA",
"' 	c #B5C2CA",
"( 	c #B4C2CA",
") 	c #BEC9CF",
"* 	c #C4CDD2",
"+ 	c #AAB9C1",
", 	c #A0B2BC",
"- 	c #BCC9D0",
". 	c #D1DADF",
"0 	c #D2DBE0",
"1 	c #D1DBE0",
"2 	c #D1DAE0",
"3 	c #D0DADF",
"4 	c #C6D2D9",
"5 	c #B7C5CD",
"6 	c #D1D9DE",
"7 	c #D1D8DB",
"8 	c #B2C0C7",
"9 	c #A8B9C1",
": 	c #C3CFD5",
"; 	c #D3DCE1",
"< 	c #D4DDE2",
"= 	c #CFD9DF",
"> 	c #C7D3D9",
"? 	c #BFCDD4",
"@ 	c #CFD8DD",
"A 	c #E2E6E9",
"B 	c #BECAD0",
"C 	c #B1C0C8",
"D 	c #C9D4DA",
"E 	c #D2DBE1",
"F 	c #D0DAE0",
"G 	c #CED8DE",
"H 	c #CDD7DD",
"I 	c #CBD6DC",
"J 	c #C4D0D7",
"K 	c #C2CFD6",
"L 	c #BCC7CC",
"M 	c #A2B2BC",
"N 	c #9BAEB8",
"O 	c #BAC7CE",
"P 	c #CDD8DE",
"Q 	c #CCD7DD",
"R 	c #CAD6DC",
"S 	c #C9D5DB",
"T 	c #C8D4DA",
"U 	c #C1CED5",
"V 	c #DEE3E5",
"W 	c #BCC7CD",
"X 	c #AFBEC7",
"Y 	c #C6D2D8",
"Z 	c #CDD8DD",
"[ 	c #BECDD4",
"] 	c #C0CDD5",
"^ 	c #D5DCE0",
"_ 	c #B3C1CA",
"` 	c #A7B9C3",
"a 	c #C1CDD4",
"b 	c #C5D1D8",
"c 	c #BBCAD2",
"d 	c #BECCD4",
"e 	c #BBC7CD",
"f 	c #9FB1BC",
"g 	c #97ACB7",
"h 	c #B5C4CC",
"i 	c #CAD5DB",
"j 	c #C4D1D7",
"k 	c #C0CED5",
"l 	c #B9C8D0",
"m 	c #BDCCD3",
"n 	c #E5E9EB",
"o 	c #BFCBD1",
"p 	c #AEBFC8",
"q 	c #C3CFD6",
"r 	c #C6D3D9",
"s 	c #C3D0D7",
"t 	c #C1CFD6",
"u 	c #BDCBD3",
"v 	c #B6C5CE",
"w 	c #BCCAD2",
"x 	c #C7CFD4",
"y 	c #9CAFBA",
"z 	c #C4D1D8",
"{ 	c #BFCDD5",
"| 	c #BAC9D1",
"} 	c #B3C4CC",
"~ 	c #BBCAD1",
" !	c #A3B4BC",
"!!	c #9AADB7",
"#!	c #B4C3CB",
"$!	c #BECCD3",
"%!	c #B7C7CF",
"&!	c #B1C2CA",
"'!	c #BFCAD0",
"(!	c #ADBDC5",
")!	c #BFCCD3",
"*!	c #B6C6CE",
"+!	c #B4C4CD",
",!	c #AEBFC9",
"-!	c #BBC5CB",
".!	c #9CAEB7",
"0!	c #94A8B2",
"1!	c #B0BFC8",
"2!	c #BBC9D1",
"3!	c #B4C5CD",
"4!	c #B2C3CB",
"5!	c #ABBDC7",
"6!	c #D6DBDF",
"7!	c #B3C0C7",
"8!	c #B3C2CB",
"9!	c #BACAD1",
":!	c #B8C7CF",
";!	c #B1C2CB",
"<!	c #AEC0C9",
"=!	c #ACBEC7",
">!	c #A6B9C3",
"?!	c #B7C6CE",
"@!	c #E4E8EB",
"A!	c #BCC8CE",
"B!	c #B3C2CA",
"C!	c #B4C4CC",
"D!	c #CCD6DB",
"E!	c #D6DEE2",
"F!	c #E2E7E9",
"G!	c #C4CFD6",
"H!	c #C7D2D8",
"    # $ % & & & & ' ( ( % )     ",
"  * + , - . 0 0 1 2 3 3 4 5 6   ",
"  7 8 9 : ; < ; 0 2 = = > ? @   ",
"  A B C D ; E F = G H I J K 0   ",
"  L M N O F = P Q R S T U U 0   ",
"  V W X Y = Z I S T > 4 [ ] 0   ",
"  ^ _ ` a Q I T > b J K c d 0   ",
"  e f g h i T 4 j K U k l m 0   ",
"  n o p q D r s t ] d u v w 0   ",
"  x $ y 5 4 z K { m c | } ~ 0   ",
"  *  !!!#!b s k $!~ l %!&!| 0   ",
"  n '!(!)!z t ? w l *!+!,!l 0   ",
"  -!.!0!1!q k $!2!%!3!4!5!%!0   ",
"  6!7!f 8!u 9!:!+!;!<!=!>!?!0   ",
"    @!A!B!w w | l %!*!3!C!D!E!  ",
"      F!) G!H!Y Y Y Y Y H!D!    "};
