/* XPM */
static const char * Nuvola_apps_kcmsystem_xpm[] = {
"16 15 163 2",
"  	c None",
". 	c #BFBFBF",
"+ 	c #BCBCBD",
"@ 	c #BDBDBE",
"# 	c #C1C1C2",
"$ 	c #ADADB0",
"% 	c #F3F3F3",
"& 	c #A6A6AA",
"* 	c #D2D2D8",
"= 	c #E8E8EA",
"- 	c #D6D6D8",
"; 	c #FFFFFF",
"> 	c #D8D8DB",
", 	c #BABABB",
"' 	c #BEBEBF",
") 	c #F1F1F1",
"! 	c #D5D5D4",
"~ 	c #63636A",
"{ 	c #E4E4EC",
"] 	c #FCFCFF",
"^ 	c #EDEDF4",
"/ 	c #F0F0F7",
"( 	c #F9F9FD",
"_ 	c #EDEDF1",
": 	c #DADADE",
"< 	c #B3B3B5",
"[ 	c #F5F5F5",
"} 	c #9898A1",
"| 	c #EFEFF4",
"1 	c #F4F4F6",
"2 	c #D5D5DB",
"3 	c #858589",
"4 	c #626269",
"5 	c #CACAD5",
"6 	c #FBFBFC",
"7 	c #C3C3C9",
"8 	c #C7C7C7",
"9 	c #C7C7C8",
"0 	c #F6F6F6",
"a 	c #AAAAA9",
"b 	c #585863",
"c 	c #CECEDC",
"d 	c #EEEEF3",
"e 	c #B5B5BD",
"f 	c #E6E6E5",
"g 	c #C5C5C3",
"h 	c #F2F2F7",
"i 	c #E5E5EA",
"j 	c #B4B4BA",
"k 	c #B7B7B9",
"l 	c #D0D0D1",
"m 	c #B9B9BB",
"n 	c #BABABC",
"o 	c #909091",
"p 	c #81818C",
"q 	c #EDEDF6",
"r 	c #DDDDE6",
"s 	c #A6A6AF",
"t 	c #C0C0C4",
"u 	c #A2A2A9",
"v 	c #E7E7F0",
"w 	c #E6E6F1",
"x 	c #ADADB8",
"y 	c #929293",
"z 	c #9999A7",
"A 	c #F5F5F8",
"B 	c #B8B8BA",
"C 	c #A0A0B0",
"D 	c #E7E7F5",
"E 	c #DCDCE9",
"F 	c #DCDCE8",
"G 	c #CBCBD7",
"H 	c #E4E4EF",
"I 	c #EAEAF4",
"J 	c #868691",
"K 	c #A4A4A7",
"L 	c #D4D4D6",
"M 	c #7E7E82",
"N 	c #BFBFC6",
"O 	c #E7E7ED",
"P 	c #C2C2CB",
"Q 	c #9E9EA6",
"R 	c #5A5A63",
"S 	c #7D7D88",
"T 	c #9595A5",
"U 	c #E8E8F6",
"V 	c #CFCFDE",
"W 	c #BDBDCE",
"X 	c #D3D3E4",
"Y 	c #95959D",
"Z 	c #7D7D85",
"` 	c #E9E9F3",
" .	c #FAFAFD",
"..	c #B0B0B6",
"+.	c #848486",
"@.	c #55555A",
"#.	c #A4A4AF",
"$.	c #C8C8CA",
"%.	c #58585E",
"&.	c #B4B4C4",
"*.	c #93939D",
"=.	c #59595E",
"-.	c #8A8A96",
";.	c #DCDCDD",
">.	c #3F3F47",
",.	c #ACACBE",
"'.	c #D5D5E0",
").	c #EDEDF2",
"!.	c #A4A4AA",
"~.	c #CACAC8",
"{.	c #5C5C63",
"].	c #F9F9FF",
"^.	c #88888D",
"/.	c #B1B1B3",
"(.	c #E5E5E4",
"_.	c #E8E8E7",
":.	c #ACACAB",
"<.	c #5D5D63",
"[.	c #D1D1DE",
"}.	c #EDEDF3",
"|.	c #CBCBD6",
"1.	c #A0A0A8",
"2.	c #C1C1C4",
"3.	c #9999A1",
"4.	c #F4F4FE",
"5.	c #D7D7E4",
"6.	c #BBBBBE",
"7.	c #ECECEB",
"8.	c #9898A4",
"9.	c #E3E3F2",
"0.	c #E3E3EF",
"a.	c #E1E1EC",
"b.	c #D6D6E2",
"c.	c #C3C3CE",
"d.	c #E3E3ED",
"e.	c #EBEBF3",
"f.	c #A3A3AF",
"g.	c #777781",
"h.	c #ECECEC",
"i.	c #CBCBCA",
"j.	c #44444B",
"k.	c #9494A4",
"l.	c #8C8C9B",
"m.	c #C2C2D3",
"n.	c #E1E1EB",
"o.	c #DFDFEE",
"p.	c #D1D1E1",
"q.	c #E8E8F5",
"r.	c #9999A6",
"s.	c #C6C6C5",
"t.	c #C5C5C4",
"u.	c #A6A6A6",
"v.	c #6E6E6D",
"w.	c #E6E6F6",
"x.	c #8F8F9D",
"y.	c #686873",
"z.	c #A2A2B4",
"A.	c #A9A9B1",
"B.	c #CACACA",
"C.	c #46464B",
"D.	c #C4C4C5",
"E.	c #868684",
"F.	c #9D9D9F",
"                . + @ # $ %     ",
"              & * = - ; > , ' ) ",
"            ! ~ { ] ^ / ( _ : < ",
"          [ } | 1 2 3 4 5 6 7 8 ",
"      9 0 a b c d e f g ~ h i j ",
"    k l m n o p q r s t u v w x ",
"  y z ; A ; B C D E F G H I J K ",
"L M N A O P Q R S T U V W X Y   ",
"Z `  .d ..+.@.#.$.%.&.*.=.-.;.  ",
">.,.'.).!.; ~.{.].& ^./.(._.    ",
":.<.[.}.|.1.2.3.v 4.5.6.        ",
"7.8.9.0.a.b.c.d.e.f.g.h.        ",
"i.j.k.l.m.n.o.p.q.r.s.          ",
"  t.u.v.r.w.x.y.z.A.            ",
"      B.C.g.D.E.F.              "};
