/* XPM */ 
static const char * up_arrow_xpm[] = {
"10 10 86 1",
" 	c None",
"!	c black",
"#	c #D0D3DB",
"$	c #A3A8BA",
"%	c #A0A7BA",
"&	c #A0A8B5",
"'	c #AAAFB7",
"(	c #E6E7E9",
")	c #BCC0C8",
"*	c #8A91A7",
"+	c #A7B0C3",
",	c #B3BAC8",
"-	c #B0B7C6",
".	c #A1A9BB",
"0	c #8A91A4",
"1	c #DEE1E5",
"2	c #D8DADF",
"3	c #5E6985",
"4	c #8790AB",
"5	c #8590A7",
"6	c #EAEBF0",
"7	c #D2D6DC",
"8	c #7F89A0",
"9	c #7C88A2",
":	c #737D93",
";	c #868DA3",
"<	c #2D3D66",
"=	c #66748F",
">	c #E1E4EA",
"?	c #FFFFFE",
"@	c white",
"A	c #C3C7CD",
"B	c #546580",
"C	c #2C3D66",
"D	c #CACCD5",
"E	c #5F6A87",
"F	c #061A4A",
"G	c #E6EAEC",
"H	c #C3C8CF",
"I	c #CDD1D8",
"J	c #B6BAC6",
"K	c #E5E7EB",
"L	c #B2BAC5",
"M	c #000A3A",
"N	c #B3B6C4",
"O	c #7A819B",
"P	c #000C41",
"Q	c #687291",
"R	c #0B1D47",
"S	c #C0C7CF",
"T	c #7F8AA2",
"U	c #1E305A",
"V	c #54647E",
"W	c #000D41",
"X	c #C5CAD1",
"Y	c #CCD0D7",
"Z	c #091444",
"[	c #000A3D",
"]	c #000739",
"^	c #CBCDD6",
"_	c #8D94A7",
"`	c #000136",
"a	c #000238",
"b	c #344169",
"c	c #838CA1",
"d	c #00053B",
"e	c #00083C",
"f	c #435372",
"g	c #2D3B64",
"h	c #00023A",
"i	c #091849",
"j	c #BFC5CF",
"k	c #A4A9B9",
"l	c #354468",
"m	c #081C49",
"n	c #102252",
"o	c #4D5B79",
"p	c #CDCFD6",
"q	c #DCDBDC",
"r	c #D4D2D3",
"s	c #BEBDC2",
"t	c #A3A3AC",
"u	c #A9A9B0",
"v	c #C8C7C9",
"w	c #D3D2D0",
"x	c #E3E4E4",
"  #$%&'(  ",
" )*+,-.01 ",
"23456789: ",
";<=>?@ABCD",
"EFGHIJKLMN",
"OPQRSTUVWX",
"YZ[]^_`ab ",
" cdefghij ",
"  klmnop  ",
" qrstuvwx "};
