/* XPM */
static const char * geometry_moving_16x16_xpm[] = {
"16 16 89 1",
" 	c None",
".	c #13C004",
"+	c #366B95",
"@	c #37719F",
"#	c #3872A0",
"$	c #3C76A0",
"%	c #32885D",
"&	c #46D737",
"*	c #3DF92B",
"=	c #16BA08",
"-	c #2F7979",
";	c #37729F",
">	c #36719F",
",	c #3A79AA",
"'	c #417FB0",
")	c #2F9F68",
"!	c #42CB38",
"~	c #A4FA9F",
"{	c #44FF34",
"]	c #1BE806",
"^	c #0F980B",
"/	c #307F84",
"(	c #3878A9",
"_	c #3973A0",
":	c #427FB0",
"<	c #4B85B7",
"[	c #40A384",
"}	c #2CBB4D",
"|	c #88F283",
"1	c #2F8B62",
"2	c #39858B",
"3	c #3E7CAE",
"4	c #3E77A1",
"5	c #309F68",
"6	c #40A485",
"7	c #5F93C6",
"8	c #40B274",
"9	c #99EB98",
"0	c #79F771",
"a	c #23BC18",
"b	c #4C909F",
"c	c #3EA283",
"d	c #2D9D66",
"e	c #3A749E",
"f	c #34895D",
"g	c #2DBB4D",
"h	c #40B275",
"i	c #43B971",
"j	c #43BE6B",
"k	c #42BE6B",
"l	c #25B333",
"m	c #34AF5F",
"n	c #2BBA4C",
"o	c #31885C",
"p	c #197F0E",
"q	c #3BB35C",
"r	c #B54F65",
"s	c #A84051",
"t	c #27993A",
"u	c #239333",
"v	c #A73D4D",
"w	c #B14B60",
"x	c #35AB53",
"y	c #26B434",
"z	c #45BF6C",
"A	c #43BF6B",
"B	c #25B334",
"C	c #317C7B",
"D	c #0F990B",
"E	c #328D64",
"F	c #5092A2",
"G	c #37B161",
"H	c #408F82",
"I	c #308C63",
"J	c #184935",
"K	c #3973A1",
"L	c #348287",
"M	c #3E888E",
"N	c #41A586",
"O	c #2DBB4E",
"P	c #2C8862",
"Q	c #317F85",
"R	c #36709C",
"S	c #3B7AAB",
"T	c #4380B1",
"U	c #318085",
"V	c #3879AA",
"W	c #3E77A2",
"X	c #307B7A",
"                ",
"        .       ",
"  +@#$%&*=-;>+  ",
"  @,')!~{]^/(>  ",
"  _:<[}|{.123;  ",
"  4567890abcde  ",
"  f!ghijklmn!o  ",
" p&~|9qrst9|~&  ",
" .*{{0uvwx0{{*. ",
"  =].ayzABa.]=  ",
"  CDEFG90aHI^J  ",
"  KLMNO|{.IPQR  ",
"  @ST5!~{]^UV@  ",
"  +@KWf&*=X#@+  ",
"        .       ",
"                "};
