/* XPM */
static const char * icone_move16_16_xpm[] = {
"16 16 256 2",
"  	c None",
". 	c #BFBFBF",
"+ 	c #222222",
"@ 	c #BCBCB2",
"# 	c #B6B6B0",
"$ 	c #DDDDD4",
"% 	c #CECEC6",
"& 	c #C6C6BE",
"* 	c #9A9A98",
"= 	c #0C0C0C",
"- 	c #9E9E9C",
"; 	c #DEDED9",
"> 	c #D4D4D1",
", 	c #D3D3CF",
"' 	c #CACAC1",
") 	c #C4C4C1",
"! 	c #C3C3BB",
"~ 	c #C2C2BF",
"{ 	c #BABAB3",
"] 	c #656562",
"^ 	c #010101",
"/ 	c #737372",
"( 	c #6A6A66",
"_ 	c #1D1D1D",
": 	c #282828",
"< 	c #9D9D85",
"[ 	c #525252",
"} 	c #FEFEFE",
"| 	c #FDFDFD",
"1 	c #F8F8F7",
"2 	c #FCFCFC",
"3 	c #FAFAF9",
"4 	c #D0D0C5",
"5 	c #EDEDE9",
"6 	c #D1D1C6",
"7 	c #F4F4F2",
"8 	c #F7F7F4",
"9 	c #F7F7EB",
"0 	c #9E9E86",
"a 	c #D5D5CA",
"b 	c #D3D3C8",
"c 	c #A9A992",
"d 	c #979780",
"e 	c #D8D8CE",
"f 	c #9C9C84",
"g 	c #FBFBFA",
"h 	c #93937D",
"i 	c #C6C6B8",
"j 	c #606060",
"k 	c #2A2A2A",
"l 	c #9A9A82",
"m 	c #D7D7CD",
"n 	c #5A5A5A",
"o 	c #F9F9F8",
"p 	c #F2F2EE",
"q 	c #D3D3C9",
"r 	c #C0C0B8",
"s 	c #B6B6AF",
"t 	c #F1F1ED",
"u 	c #EBEBE6",
"v 	c #F2F2EF",
"w 	c #DADAD1",
"x 	c #C0C0B6",
"y 	c #90907A",
"z 	c #F4F4F1",
"A 	c #E8E8E3",
"B 	c #D2D2C6",
"C 	c #EAEAE6",
"D 	c #C4C4BC",
"E 	c #E6E6E2",
"F 	c #EFEFEC",
"G 	c #585858",
"H 	c #595959",
"I 	c #D6D6CC",
"J 	c #D6D6CD",
"K 	c #CACABF",
"L 	c #F0F0EC",
"M 	c #D2D2C7",
"N 	c #DCDCD8",
"O 	c #F9F9F6",
"P 	c #EFEFEB",
"Q 	c #FBFBFB",
"R 	c #CFCFBE",
"S 	c #B8B8B2",
"T 	c #F5F5F3",
"U 	c #B0B0A9",
"V 	c #D4D4CA",
"W 	c #C9C9B7",
"X 	c #C8C8BD",
"Y 	c #F3F3F2",
"Z 	c #BBBBAA",
"` 	c #F6F6F5",
" .	c #AEAE98",
"..	c #B9B9A7",
"+.	c #CCCCBA",
"@.	c #F6F6F3",
"#.	c #C5C5BC",
"$.	c #656565",
"%.	c #AFAF9A",
"&.	c #F3F3F0",
"*.	c #DADAD2",
"=.	c #AFAFA6",
"-.	c #DDDDD8",
";.	c #F5F5E8",
">.	c #B3B3AB",
",.	c #B3B39E",
"'.	c #666666",
").	c #676767",
"!.	c #BABAB1",
"~.	c #D6D6CB",
"{.	c #CFCFC3",
"].	c #F8F8F8",
"^.	c #EEEEEA",
"/.	c #A9A9A6",
"(.	c #616161",
"_.	c #2D2D2D",
":.	c #CECEBD",
"<.	c #CCCCC3",
"[.	c #BCBCB4",
"}.	c #F8F8F5",
"|.	c #E9E9E8",
"1.	c #E8E8E8",
"2.	c #D9D9CF",
"3.	c #BDBDB4",
"4.	c #3B3B39",
"5.	c #DBDBD3",
"6.	c #CECECD",
"7.	c #E1E1DD",
"8.	c #91917B",
"9.	c #C7C7C2",
"0.	c #ABABAB",
"a.	c #A7A79F",
"b.	c #F7F7F6",
"c.	c #F5F5F4",
"d.	c #A7A7A1",
"e.	c #F2F2F1",
"f.	c #5F5F5C",
"g.	c #F0F0EE",
"h.	c #CECEC4",
"i.	c #B1B1AC",
"j.	c #EEEEE9",
"k.	c #BBBBB5",
"l.	c #B4B4AE",
"m.	c #9B9B97",
"n.	c #CACAC6",
"o.	c #CDCDC2",
"p.	c #C5C5BD",
"q.	c #C1C1BA",
"r.	c #A0A09E",
"s.	c #575754",
"t.	c #B3B3A9",
"u.	c #8D8D87",
"v.	c #94948C",
"w.	c #DEDEDC",
"x.	c #D7D7D4",
"y.	c #DEDEDB",
"z.	c #9D9D98",
"A.	c #CBCBC8",
"B.	c #D3D3CA",
"C.	c #F0F0EF",
"D.	c #B7B7AD",
"E.	c #E5E5E0",
"F.	c #E6E6E0",
"G.	c #F9F9F9",
"H.	c #D7D7D0",
"I.	c #C1C1B7",
"J.	c #E9E9E4",
"K.	c #B7B7B4",
"L.	c #85857E",
"M.	c #B8B8B5",
"N.	c #B9B9B6",
"O.	c #A3A3A1",
"P.	c #B0B09B",
"Q.	c #757575",
"R.	c #C7C7BD",
"S.	c #ECECEA",
"T.	c #9B9B9A",
"U.	c #D0D0C8",
"V.	c #E7E7E3",
"W.	c #D2D2C9",
"X.	c #80807B",
"Y.	c #81817E",
"Z.	c #6E6E69",
"`.	c #BEBEB8",
" +	c #D7D7D3",
".+	c #B4B4B1",
"++	c #CFCFC4",
"@+	c #E1E1E0",
"#+	c #FAFAFA",
"$+	c #949490",
"%+	c #C9C9C4",
"&+	c #D1D1CB",
"*+	c #D3D3C7",
"=+	c #EFEFEA",
"-+	c #C9C9C1",
";+	c #B6B6B2",
">+	c #D1D1CD",
",+	c #E0E0D9",
"'+	c #E0E0DA",
")+	c #E2E2DA",
"!+	c #B2B2AA",
"~+	c #E4E4DE",
"{+	c #E7E7E4",
"]+	c #747473",
"^+	c #E7E7E2",
"/+	c #90908E",
"(+	c #CBCBC2",
"_+	c #D0D0C7",
":+	c #B1B19C",
"<+	c #B8B8AE",
"[+	c #B9B9B2",
"}+	c #BCBCB6",
"|+	c #A5A5A3",
"1+	c #A7A7A2",
"2+	c #DFDFD7",
"3+	c #F3F3F1",
"4+	c #A3A39C",
"5+	c #DBDBD2",
"6+	c #EEEEED",
"7+	c #ADADA6",
"8+	c #CECEC2",
"9+	c #CECEC3",
"0+	c #B9B9B8",
"a+	c #CDCDC3",
"b+	c #CDCDCA",
"c+	c #D8D8D7",
"d+	c #20201F",
"e+	c #B9B9B3",
"f+	c #D8D8D0",
"g+	c #F1F1EE",
"h+	c #74746F",
"i+	c #535351",
"j+	c #D8D8D3",
"k+	c #CFCFC6",
"l+	c #B3B3AC",
"m+	c #C6C6BD",
"n+	c #C7C7BC",
"o+	c #7D7D78",
"p+	c #40403E",
"q+	c #CDCDC9",
"r+	c #BABAB4",
"s+	c #A0A099",
"t+	c #BBBBB4",
"u+	c #B7B7B0",
"v+	c #DEDEDE",
"w+	c #ECECE7",
"x+	c #B5B5AF",
"y+	c #9D9D97",
"z+	c #B1B1A8",
"A+	c #AAAAA1",
"B+	c #ABABA3",
"C+	c #D9D9D6",
"D+	c #CCCCC8",
"E+	c #CCCCC5",
"F+	c #CDCDC4",
"G+	c #7F7F78",
"  R %.< < < < < < < < < < %.R   ",
"+.| | 2 2 2 2 . . ].G.Q 2 | | +.",
"c g g 3 3 3 3 H H C.e.1 3 g g c ",
"< }.8 8 8 @.- j j /+y.F z 8 }.< ",
"< T 7 7 7 S.0+'.'.O.6.|.g.7 T < ",
"< t L ^.E 5 C $.$.~ A.N C P L < ",
"< =+j.T./.A V.(.(.) q+|+* J.u f ",
"< .+H [ [ [ [ [ [ [ [ [ [ G /.d ",
"< $+= ^ ^ ^ ^ ^ ^ ^ ^ ^ ^ = Y.h ",
"< ; H.s.( s e+= = U l.( i+s }+y ",
"< $ J m+x+[.r _ _ !+u+s r t+q.h ",
"< w J _+h.#.u._._.o+l+' a+F+W.l ",
"< 2.~.M 6 4 Z.k k f.<+' ++M I f ",
"c e a B B 4 o.d+d+A+z+n+8+a e c ",
"W w m b b M 4 L.G+=.D.K 4 m w W ",
"  :. .< < < f d h y h l f  .:.  "};
