/* XPM */ 
static const char * image_icon_xpm[] = {
"16 15 118 2",
"  	c None",
"! 	c black",
"# 	c #EDEEF1",
"$ 	c #DAD5CB",
"% 	c #D6CBB7",
"& 	c #D4CFC7",
"' 	c #E9E9EC",
"( 	c #D5CAAB",
") 	c #FAEAB1",
"* 	c #E9CE99",
"+ 	c #A8926A",
", 	c #ADA89F",
"- 	c #CDC4B2",
". 	c #F7EAB3",
"0 	c #FCEFBE",
"1 	c #C3AC82",
"2 	c #837252",
"3 	c #675E50",
"4 	c #E8E9EB",
"5 	c #E0DEDF",
"6 	c #DCCBA1",
"7 	c #FFFDC9",
"8 	c #DFCB9F",
"9 	c #978563",
": 	c #524732",
"; 	c #4F4B42",
"< 	c #ECECEF",
"= 	c #CEC5B5",
"> 	c #F9ECB7",
"? 	c #F8EDBE",
"@ 	c #B6A179",
"A 	c #6E6047",
"B 	c #2D2619",
"C 	c #888784",
"D 	c #DBD8D9",
"E 	c #DFD3A7",
"F 	c #FFFCC7",
"G 	c #D8C598",
"H 	c #8A7859",
"I 	c #3C3323",
"J 	c #56534D",
"K 	c #EBECED",
"L 	c #DEDAD7",
"M 	c #E1D4A9",
"N 	c #FFF9BA",
"O 	c #F1DDAA",
"P 	c #B39D76",
"Q 	c #5C5039",
"R 	c #3E3930",
"S 	c #CFCFCF",
"T 	c #D1D4D9",
"U 	c #5A6266",
"V 	c #928F79",
"W 	c #CDBA91",
"X 	c #D6BC8C",
"Y 	c #978462",
"Z 	c #413929",
"[ 	c #A1A0A0",
"] 	c #B9B4AD",
"^ 	c #475258",
"_ 	c #2B435B",
"` 	c #2E3B47",
"a 	c #5D594D",
"b 	c #726449",
"c 	c #5E584D",
"d 	c #E9EAEC",
"e 	c #D4B98F",
"f 	c #EFA522",
"g 	c #E89F2C",
"h 	c #9B7646",
"i 	c #393D3F",
"j 	c #0C1925",
"k 	c #0F1110",
"l 	c #65635F",
"m 	c #D4CDC2",
"n 	c #E89E27",
"o 	c #FFA71C",
"p 	c #FFA31F",
"q 	c #FF961B",
"r 	c #CF6A1B",
"s 	c #3B2416",
"t 	c #181F24",
"u 	c #98999C",
"v 	c #D8D5CB",
"w 	c #E0A63A",
"x 	c #FFA51B",
"y 	c #FF951F",
"z 	c #FF891C",
"{ 	c #F57B19",
"| 	c #C65D10",
"} 	c #672E05",
"~ 	c #A9A5A3",
" !	c #D2BCA5",
"!!	c #DE9027",
"#!	c #FF9B17",
"$!	c #FF8E1D",
"%!	c #FB7D1A",
"&!	c #DF6A16",
"'!	c #AD5210",
"(!	c #682C00",
")!	c #502C14",
"*!	c #D7D4D4",
"+!	c #B08D6D",
",!	c #9A5319",
"-!	c #A54C0B",
".!	c #9D4304",
"0!	c #893901",
"1!	c #6A2B00",
"2!	c #4B1D00",
"3!	c #4C2C14",
"4!	c #AAA09C",
"5!	c #DEE0E5",
"6!	c #BAB7B7",
"7!	c #A39C97",
"8!	c #958A82",
"9!	c #958981",
":!	c #ADA59F",
";!	c #DFDEDF",
"                    # $ % &     ",
"                  ' ( ) * + ,   ",
"                  - . 0 1 2 3 4 ",
"                5 6 7 8 9 : ; < ",
"                = > ? @ A B C   ",
"              D E F G H I J K   ",
"            L M N O P Q R S     ",
"          T U V W X Y Z [       ",
"          ] ^ _ ` a b c d       ",
"        e f g h i j k l         ",
"      m n o p q r s t u         ",
"    v w x y z { | } ~           ",
"   !!!#!$!%!&!'!(!)!*!          ",
"  +!,!-!.!0!1!2!3!4!            ",
"    5!6!7!8!9!:!;!              "};
