/* XPM */
static const char *logo80_xpm[] = {
/* width height num_colors chars_per_pixel */
"    80    80       64            2",
/* colors */
"`` c #6cd4e4",
"`. c #e9e7f2",
"`# c #0b0171",
"`a c #4e4598",
"`b c #d8d6e8",
"`c c #58a6cd",
"`d c #f9f903",
"`e c #66c6dd",
"`f c #02006b",
"`g c #968fc2",
"`h c #a39e2e",
"`i c #8d86bd",
"`j c #0f0074",
"`k c #5298c4",
"`l c #f9f8fc",
"`m c #b8b4d6",
"`n c #6f6748",
"`o c #4477b3",
"`p c #69cde1",
"`q c #30499a",
"`r c #75e8ef",
"`s c #242785",
"`t c #f4f3f9",
"`u c #443a92",
"`v c #cbc8e1",
"`w c #a6a1cc",
"`x c #332889",
"`y c #7c74b3",
"`z c #18147b",
"`A c #60b9d6",
"`B c #837cb7",
"`C c #6b65a9",
"`D c #4c89bd",
"`E c #2a1f83",
"`F c #3a328d",
"`G c #d8d514",
"`H c #1f187a",
"`I c #736aae",
"`J c #3c64a9",
"`K c #59519f",
"`L c #a19ac9",
"`M c #3759a3",
"`N c #655ca6",
"`O c #c4c0dd",
"`P c #b2add2",
"`Q c #bfbada",
"`R c #70dce9",
"`S c #dedcec",
"`T c #25328d",
"`U c #293c92",
"`V c #0d0773",
"`W c #3f3960",
"`X c #efedf6",
"`Y c #d2cfe5",
"`Z c #e4e1ef",
"`0 c #140b77",
"`1 c #1c1f82",
"`2 c #110476",
"`3 c #aca7cf",
"`4 c #1c0f79",
"`5 c #281883",
"`6 c #261682",
"`7 c #ffffff",
"`8 c #120076",
/* pixels */
"`F`6`5`5`5`5`5`5`5`5`5`5`5`5`5`5`5`5`5`5`5`5`5`5`5`5`5`5`5`5`5`5`5`5`5`5`5`5`5`5`5`5`5`5`5`5`5`5`5`5`5`5`5`5`5`5`5`5`5`5`5`5`5`5`5`5`5`5`5`5`5`5`5`5`5`5`5`5`6`x",
"`6`8`8`8`8`8`8`8`8`8`8`8`8`8`8`8`8`8`8`8`8`8`8`8`8`8`8`8`8`8`8`8`8`8`8`8`8`8`8`8`8`8`8`8`8`8`8`8`8`8`8`8`8`8`8`8`8`8`8`8`8`8`8`8`8`8`8`8`8`8`8`8`8`8`8`8`8`8`8`4",
"`5`8`8`8`8`8`8`8`8`8`8`8`8`8`8`8`8`8`8`8`8`8`8`8`8`8`8`8`8`8`8`8`8`8`8`8`8`8`8`8`8`8`8`8`8`8`8`8`8`8`8`8`8`8`8`8`8`8`8`8`8`8`8`8`8`8`8`8`8`8`8`8`8`8`8`8`8`8`8`6",
"`5`8`8`8`8`8`8`8`8`8`8`8`8`8`8`8`8`8`8`8`8`8`8`8`8`8`8`8`8`8`8`8`8`8`8`8`8`8`8`8`8`8`8`8`8`8`8`8`8`8`8`8`8`8`8`8`8`8`8`8`8`8`8`8`8`8`8`8`8`8`8`8`8`8`8`8`8`8`8`6",
"`5`8`8`8`8`8`8`8`8`8`8`j`j`8`8`8`8`8`8`8`8`8`8`8`8`8`8`8`8`8`8`8`8`8`8`8`8`8`8`8`8`8`8`8`8`8`8`8`8`8`8`8`8`8`8`8`8`8`8`8`8`8`8`8`8`8`8`8`8`8`8`8`8`8`8`8`8`8`8`6",
"`5`8`8`8`8`8`8`8`8`8`j`H`4`8`8`8`8`8`8`8`8`8`8`8`8`8`8`8`8`8`8`8`8`8`8`8`8`8`8`8`8`8`8`8`8`8`8`8`8`8`8`8`8`8`8`8`8`8`8`8`8`8`8`8`8`8`8`8`8`8`8`8`8`8`8`8`8`8`8`6",
"`5`8`8`8`8`8`8`j`j`j`#`n`n`2`j`8`8`8`8`8`8`8`8`8`8`8`8`8`8`8`8`8`8`8`8`8`8`8`8`8`8`8`8`8`8`j`j`j`#`#`#`#`j`8`8`8`8`8`8`8`8`8`8`8`8`8`8`8`8`8`8`8`8`8`8`8`8`8`8`6",
"`5`8`8`8`8`8`8`4`H`#`#`h`h`#`#`2`8`8`8`8`8`8`8`8`8`8`8`8`8`8`8`8`8`8`8`8`8`8`8`8`j`#`#`#`#`j`2`0`z`H`z`0`j`#`#`j`8`8`8`8`8`8`8`8`8`8`8`8`8`8`8`8`8`8`8`8`8`8`8`6",
"`5`8`8`8`8`8`j`H`n`h`n`G`d`h`h`W`j`8`8`8`8`8`8`8`8`8`8`8`8`8`8`8`8`8`8`8`8`8`#`#`j`z`T`q`M`o`D`k`k`c`c`k`o`M`T`0`#`j`8`8`8`8`8`8`8`8`8`8`8`8`8`8`8`8`8`8`8`8`8`6",
"`5`8`8`8`8`8`8`2`W`h`d`d`d`d`h`E`j`8`8`8`8`8`8`8`8`8`8`8`8`8`8`8`8`8`8`j`#`#`z`q`o`c`A`p`R`r`r`r`r`R`R`r`r`R`e`k`q`j`#`8`8`8`8`8`8`8`8`8`8`8`8`8`8`8`8`8`8`8`8`6",
"`5`8`8`8`8`8`8`8`#`#`h`d`d`d`4`#`8`8`8`8`8`8`8`8`8`8`8`8`8`8`8`8`8`#`#`0`U`o`c`p`r`r`R`p`c`D`J`M`q`q`q`q`J`k`p`r```o`0`#`8`8`8`8`8`8`8`8`8`8`8`8`8`8`8`8`8`8`8`6",
"`5`8`8`8`8`8`8`8`#`H`G`h`n`h`n`0`8`8`8`8`8`8`8`8`8`8`8`8`8`8`8`#`#`T`o`k`e`R`r`p`D`M`q`T`1`z`2`j`j`#`#`j`j`z`s`M`A`R`k`1`#`8`8`8`8`8`8`8`8`8`8`8`8`8`8`8`8`8`8`6",
"`5`8`8`8`8`8`8`8`#`n`n`z`#`H`n`4`8`8`8`8`8`8`8`8`8`8`8`8`8`j`#`s`o`A```R`R`c`J`s`0`j`j`j`j`j`j`8`8`8`8`8`j`j`#`#`U`A`r`k`z`j`8`8`8`8`8`8`8`8`8`8`8`8`8`8`8`8`8`6",
"`5`8`8`8`8`8`8`8`8`4`0`j`8`j`2`8`8`8`8`8`8`8`8`8`8`8`8`8`#`z`o`A`p```p`k`U`z`2`j`j`8`8`8`8`8`8`8`8`8`8`8`8`8`8`j`#`o```R`M`2`8`8`8`8`8`8`8`8`8`8`8`8`8`8`8`8`8`6",
"`5`8`8`8`8`8`8`8`8`8`8`8`8`8`8`8`8`8`8`8`8`8`8`8`8`8`j`#`q`A`p`p```c`U`0`j`j`8`8`8`8`8`8`8`8`8`8`8`8`8`8`8`8`8`8`#`U`A`R`c`z`j`8`8`8`8`8`8`8`8`8`8`8`8`8`8`8`8`6",
"`5`8`8`8`8`8`8`8`8`8`8`8`8`8`8`8`8`8`8`8`8`8`8`8`8`#`1`D`e`p```A`M`0`j`8`8`8`8`8`8`8`8`8`8`8`8`8`8`8`8`8`8`8`8`8`#`T`A```R`q`j`8`8`8`8`8`8`8`8`8`8`8`8`8`8`8`8`6",
"`5`8`8`8`8`8`8`8`8`8`8`8`8`8`8`8`8`8`8`8`8`8`8`j`V`q`A```p`e`D`1`#`8`8`8`8`8`8`8`8`8`8`8`8`8`8`8`8`8`8`8`8`8`8`8`#`U`A```D`z`j`8`8`8`8`8`8`8`8`8`8`8`8`8`8`8`8`6",
"`5`8`8`8`8`8`8`8`j`j`8`8`8`8`8`8`8`8`8`8`8`8`#`s`k```p```c`T`j`j`8`8`8`8`8`8`8`8`8`8`8`8`8`8`8`8`8`8`8`8`8`8`8`8`j`0`s`s`2`j`8`8`8`8`8`8`8`8`8`8`8`8`8`8`8`8`8`6",
"`5`8`8`8`8`8`8`2`H`z`#`j`8`8`8`8`8`8`8`8`8`#`T`A`R`p```k`1`#`8`8`8`8`8`8`8`8`8`8`8`8`8`8`8`8`8`8`8`8`8`8`8`8`8`8`8`8`#`#`8`8`8`8`8`8`8`8`8`8`8`8`j`j`8`8`8`8`8`6",
"`5`8`8`8`8`8`f`F`Q`P`a`4`j`8`8`8`8`8`8`8`#`T`A```p`p`o`0`#`8`8`8`8`8`8`8`8`8`8`8`8`8`8`8`8`8`8`8`8`8`8`8`8`8`8`8`8`8`8`8`8`8`8`8`8`8`8`8`8`8`8`8`j`V`#`j`8`8`8`6",
"`5`8`8`8`8`8`f`C`7`7`7`C`#`j`8`8`8`8`8`#`T`A`R`p`e`J`#`#`8`8`8`8`8`8`8`8`8`8`8`8`8`8`8`8`8`8`8`8`8`8`8`8`8`8`8`8`8`8`8`8`8`8`#`f`f`#`8`8`8`8`8`#`u`B`a`0`j`8`8`6",
"`5`8`8`8`8`#`#`g`7`7`7`y`#`j`8`8`8`8`#`T`A`R`p`e`q`#`j`8`8`8`8`8`8`8`8`8`8`8`8`8`8`8`8`8`8`8`8`8`8`8`8`8`8`8`8`8`8`8`8`8`8`f`H`a`u`V`#`8`8`8`#`#`w`7`X`u`#`8`8`6",
"`5`8`8`8`8`f`1`O`7`7`l`a`#`8`8`8`8`#`s`c`R`p`e`q`#`j`8`8`8`8`8`8`8`8`8`8`8`8`8`8`8`8`8`8`8`8`8`8`8`8`8`8`8`8`8`8`8`8`8`8`#`x`m`l`.`i`0`j`8`8`f`H`Q`7`7`a`f`8`8`6",
"`5`8`8`8`8`f`a`X`7`7`Q`H`#`8`8`8`j`z`c`R`p`p`M`#`j`8`8`8`8`8`8`8`8`8`8`8`8`8`8`8`8`8`8`8`8`8`8`8`8`8`8`8`8`8`8`8`8`8`8`8`f`g`7`7`7`7`I`f`8`8`f`F`S`7`Y`s`#`8`8`6",
"`5`8`8`8`j`f`I`7`7`7`B`#`j`8`8`8`j`o`R`e```o`#`j`8`8`8`8`8`8`8`8`8`8`8`8`8`8`8`8`8`8`8`8`8`8`8`8`8`8`8`8`8`8`8`8`8`8`8`8`f`3`7`7`7`7`b`0`#`8`f`N`l`7`3`z`#`8`8`6",
"`5`8`8`8`#`V`L`7`7`7`K`f`8`8`8`j`z`A`p`p`c`z`#`8`8`8`8`8`8`8`8`8`8`8`8`8`8`8`8`8`8`8`8`8`8`8`8`8`8`#`j`8`8`8`8`8`8`8`8`j`#`Q`7`7`7`7`l`C`f`j`f`B`7`7`y`#`j`8`8`6",
"`5`8`8`8`f`s`v`7`7`S`F`f`8`8`8`#`M```p`e`q`f`8`8`8`8`8`8`8`8`8`8`8`8`8`8`8`8`8`8`8`8`8`8`8`8`j`#`#`1`0`#`j`8`8`8`8`8`8`#`4`S`7`7`7`7`7`O`V`f`V`w`7`7`K`f`8`8`8`6",
"`5`8`8`8`f`u`X`7`7`P`z`#`8`8`8`2`k```p`k`V`j`8`8`8`8`8`8`8`8`8`8`8`8`8`8`8`8`8`8`8`8`j`#`#`#`0`U`o`c`c`J`2`j`8`8`8`8`8`f`u`.`7`X`Y`7`7`X`K`f`H`Q`7`l`a`f`8`8`8`6",
"`5`8`8`8`f`K`7`7`7`y`#`j`8`8`j`s`e`p`e`M`#`8`8`8`8`8`8`8`8`8`8`8`8`8`8`8`8`j`#`#`#`j`1`q`M`o`c`e`p`p```p`o`j`j`8`8`8`8`f`y`l`7`P`u`t`7`7`w`f`F`Z`7`Z`F`f`8`8`8`6",
"`5`8`8`j`#`B`7`7`X`a`f`8`8`8`#`q`p`p`A`s`#`8`8`8`8`8`8`8`8`8`8`8`8`8`8`8`j`2`s`q`o`k`A`e`e`p`p`p`e`e`e```D`j`8`8`8`8`j`f`P`7`7`I`f`i`7`7`b`H`a`7`7`Q`1`f`8`8`8`6",
"`5`8`8`#`H`m`7`7`v`s`f`8`8`8`#`M`p`p`A`s`#`8`8`8`8`8`8`8`8`8`8`8`8`8`j`0`o`A`A`e`p`p`p`````p`e`e`e`e`p`e`q`#`8`8`8`8`f`6`b`7`7`u`f`E`.`7`l`B`C`7`7`L`0`#`8`8`8`6",
"`5`8`8`#`F`Z`7`7`w`0`#`8`8`8`#`M`p`p`e`T`#`8`8`8`8`8`8`8`8`8`8`8`8`8`j`0`k`r`p`e```p`A`k`M`o`e`e`e`e`p`A`1`#`8`8`8`8`f`a`.`7`.`6`j`#`y`7`7`b`Q`7`7`B`#`j`8`8`8`6",
"`5`8`j`#`K`7`7`7`y`f`j`8`8`8`#`M`p`e`e`M`#`8`8`8`8`8`8`8`8`8`8`8`8`8`8`j`1`o`e`p`D`U`0`V`U`c`p`e`e`e`p`D`j`8`8`8`8`8`f`y`t`7`b`4`j`#`H`Y`7`7`7`7`7`y`f`j`8`8`8`6",
"`5`8`j`#`N`X`X`Z`a`f`8`8`8`8`j`T`p`e`p`k`V`j`8`8`8`8`8`8`8`8`8`8`8`8`8`8`j`#`T`U`#`V`1`o`p`p`p`e`e`e`p`J`#`8`8`8`8`j`f`3`l`7`v`0`j`j`#`K`l`7`7`7`7`y`f`j`8`8`8`6",
"`5`8`8`j`0`F`a`a`4`j`8`8`8`8`8`0`c`p`p`e`J`#`j`8`8`8`8`8`8`8`8`8`8`8`8`8`j`j`#`V`U`D`A`````p`D`q`A`p`e`q`#`8`8`8`8`j`j`u`g`P`K`#`8`8`j`V`i`.`Z`Z`b`a`f`8`8`8`8`6",
"`5`8`8`8`j`f`f`f`j`8`8`8`8`8`8`#`q```e`p`e`M`0`#`j`j`8`8`8`8`8`j`j`j`j`j`0`1`q`k```R```p`A`J`#`T`p`p`A`s`#`8`8`8`8`8`8`f`f`f`f`8`8`8`8`j`2`F`E`E`0`#`j`8`8`8`8`6",
"`5`8`8`8`8`8`8`8`8`8`8`8`8`8`8`8`0`c```e`p```o`s`z`j`j`#`#`#`#`j`0`z`T`M`D`A```R```p`A`D`s`#`#`o`p`p`c`0`j`8`8`8`8`8`8`8`8`j`8`8`8`8`8`8`j`f`f`f`#`8`8`8`8`8`8`6",
"`5`8`8`8`8`8`8`8`8`8`8`8`8`8`8`8`j`T`A```e`e```e`D`J`q`U`T`U`q`J`o`k`e```R```````A`D`U`#`#`j`2`c`p`p`D`#`8`8`8`8`8`8`8`8`8`8`8`8`8`8`8`8`8`8`8`8`8`8`8`8`8`8`8`6",
"`5`8`8`8`8`8`8`8`8`8`8`8`8`8`8`8`8`#`U`c`R```p`p`R```p`e`e`e`p```R`R`R`````p`A`D`U`#`#`j`8`#`T`e`e`p`J`#`8`8`8`8`8`8`8`8`8`8`8`8`8`8`8`8`8`8`8`8`8`8`8`8`8`8`8`6",
"`5`8`8`8`8`8`8`8`8`8`8`8`8`8`8`8`8`8`#`1`o`c`e`R`````R`R`R`R`R`R```p`A`k`D`J`T`j`#`j`8`8`8`#`D`p`e`p`q`#`8`8`8`8`8`8`8`8`8`8`8`8`8`8`8`8`8`8`8`8`8`8`8`8`8`8`8`6",
"`5`8`8`8`8`8`8`8`8`8`8`8`8`8`8`8`8`8`8`#`j`1`q`o`D`k`c`c`c`k`D`o`J`q`T`H`0`#`#`j`8`8`8`8`8`j`k`R`R`p`U`#`8`8`8`8`8`8`8`8`8`8`8`8`8`8`8`8`8`8`8`8`8`8`8`8`8`8`8`6",
"`5`8`8`8`8`8`8`8`8`8`8`8`8`8`8`8`8`8`8`8`j`#`#`j`0`H`1`1`1`z`0`2`#`#`#`#`j`8`8`8`8`8`8`8`8`j`T`c`A`o`2`8`8`8`8`8`8`8`8`8`8`8`8`8`8`8`8`8`8`8`8`8`8`8`8`8`8`8`8`6",
"`5`8`8`8`8`8`8`8`8`8`8`8`8`8`8`8`8`8`8`8`8`8`8`j`j`#`#`#`#`#`j`j`j`8`8`8`8`8`8`8`8`8`8`8`8`8`j`1`1`0`j`8`8`8`8`8`8`8`8`8`8`8`8`8`8`8`8`8`8`8`8`8`8`8`8`8`8`8`8`6",
"`5`8`8`8`8`8`8`8`8`8`8`8`8`8`8`8`8`8`8`8`8`8`8`8`8`8`8`8`8`8`8`8`8`8`8`8`8`8`8`8`8`8`8`8`8`8`8`#`#`j`8`8`8`8`8`8`8`8`8`8`8`8`8`8`8`8`8`8`8`8`8`8`8`8`8`8`8`8`8`6",
"`5`8`8`8`8`8`8`8`8`8`8`8`8`8`8`8`8`8`8`8`8`8`8`8`8`8`8`8`8`8`8`8`8`8`8`8`8`8`8`8`8`8`8`8`8`8`8`8`8`8`8`8`8`8`8`8`8`8`8`8`8`8`8`8`8`8`8`8`8`8`8`8`8`8`8`8`8`8`8`6",
"`5`8`8`8`8`8`8`8`8`8`8`8`8`8`8`8`8`8`8`8`8`8`8`8`8`8`8`8`8`8`8`8`8`8`8`8`8`8`8`8`8`8`8`8`8`8`8`8`8`8`8`8`8`8`8`8`8`8`8`8`8`8`8`8`8`8`8`8`8`8`8`8`8`8`8`8`8`8`8`6",
"`5`8`8`8`8`8`8`8`8`8`8`8`8`8`8`8`8`8`8`8`8`8`8`8`8`8`8`8`8`8`8`8`8`8`8`8`8`8`8`8`8`8`8`8`8`8`8`8`8`8`8`8`8`8`8`8`8`8`8`8`8`8`8`8`8`8`8`8`8`8`8`8`8`8`8`8`8`8`8`6",
"`5`8`8`8`8`8`8`8`8`8`8`8`8`8`8`8`8`8`8`8`8`8`8`8`8`8`8`8`8`8`8`8`8`8`8`8`8`8`8`8`8`8`8`8`8`8`8`8`8`8`8`8`8`8`8`8`8`8`8`8`8`8`8`8`8`8`8`8`8`8`8`8`8`8`8`8`8`8`8`6",
"`5`8`8`8`8`8`8`8`8`8`8`8`8`8`8`8`8`8`8`8`8`j`#`8`8`#`#`8`#`j`8`#`V`#`8`V`V`#`V`8`#`#`8`2`V`#`V`j`j`#`j`j`#`j`2`V`#`V`2`8`8`8`8`8`8`8`8`8`8`8`8`8`8`8`8`8`8`8`8`6",
"`5`8`8`8`8`8`8`8`8`8`8`8`8`8`8`8`8`8`8`8`#`x`I`H`5`y`u`#`C`F`#`u`i`K`0`C`i`B`y`E`u`I`0`a`B`B`i`x`E`y`5`F`I`4`a`i`B`B`x`#`8`8`8`8`8`8`8`8`8`8`8`8`8`8`8`8`8`8`8`6",
"`5`8`8`8`8`8`8`8`8`8`8`8`8`8`8`8`8`8`8`8`f`N`X`F`u`t`.`a`Z`I`#`S`S`i`4`B`.`7`w`5`g`t`s`a`v`7`m`F`K`l`F`I`X`E`a`Z`7`Q`x`#`8`8`8`8`8`8`8`8`8`8`8`8`8`8`8`8`8`8`8`6",
"`5`8`8`8`8`8`8`8`8`8`8`8`8`8`8`8`8`8`8`8`f`K`Z`F`u`.`.`b`l`N`#`B`O`B`2`f`i`S`V`f`L`.`F`f`a`.`4`f`K`l`a`y`X`E`f`C`.`F`f`8`8`8`8`8`8`8`8`8`8`8`8`8`8`8`8`8`8`8`8`6",
"`5`8`8`8`8`8`8`8`8`8`8`8`8`8`8`8`8`8`8`8`f`K`Z`F`u`t`N`i`t`N`2`y`v`Z`4`V`g`b`H`f`L`.`x`f`K`.`x`#`x`S`Y`b`P`V`f`y`.`u`f`8`8`8`8`8`8`8`8`8`8`8`8`8`8`8`8`8`8`8`8`6",
"`5`8`8`8`8`8`8`8`8`8`8`8`8`8`8`8`8`8`8`8`#`x`C`H`5`y`x`f`C`F`j`y`i`a`#`2`a`I`0`f`a`I`H`f`x`I`4`j`#`u`g`B`5`#`#`F`I`E`#`8`8`8`8`8`8`8`8`8`8`8`8`8`8`8`8`8`8`8`8`6",
"`5`8`8`8`8`8`8`8`8`8`8`8`8`8`8`8`8`8`8`8`8`#`f`j`j`f`#`j`f`#`8`f`f`f`8`8`f`f`j`8`f`f`j`8`#`f`j`8`8`f`f`f`#`8`8`#`f`j`8`8`8`8`8`8`8`8`8`8`8`8`8`8`8`8`8`8`8`8`8`6",
"`5`8`8`8`8`8`8`8`8`8`8`8`8`8`8`8`8`8`8`8`8`8`8`8`8`8`8`8`8`8`8`8`8`8`8`8`8`8`8`8`8`8`8`8`8`8`8`8`8`8`8`8`8`8`8`8`8`8`8`8`8`8`8`8`8`8`8`8`8`8`8`8`8`8`8`8`8`8`8`6",
"`5`8`8`8`8`8`8`8`8`8`j`j`8`8`j`j`j`8`8`8`j`j`8`8`8`8`j`j`8`8`j`j`j`8`8`8`8`8`j`8`8`8`j`j`8`8`8`j`8`8`j`8`8`j`8`8`8`j`j`8`8`8`j`8`8`j`8`8`j`j`j`8`8`8`8`8`8`8`8`6",
"`5`8`8`8`8`8`8`8`8`f`f`f`#`8`f`f`f`j`8`f`f`f`f`8`j`f`f`f`#`8`f`f`f`f`j`8`j`f`f`j`8`j`f`f`f`f`j`f`j`8`f`#`j`f`#`8`#`f`f`f`j`8`f`j`j`f`j`8`f`f`#`8`8`8`8`8`8`8`8`6",
"`5`8`8`8`8`8`8`8`f`u`L`P`u`#`I`g`g`E`f`a`P`w`u`f`f`a`3`P`u`j`B`g`i`N`j`#`0`y`i`z`f`E`B`L`g`x`6`i`E`2`g`u`H`i`K`f`E`g`m`K`#`0`i`x`5`g`x`z`i`L`I`0`#`8`8`8`8`8`8`6",
"`5`8`8`8`8`8`8`f`F`b`Q`B`F`f`v`.`B`6`x`Z`Y`Y`O`0`a`.`3`y`u`8`.`m`i`.`E`f`u`l`t`C`f`u`X`g`S`w`F`t`y`K`7`C`s`l`i`f`w`b`v`X`u`4`X`a`F`l`a`s`t`m`K`2`j`8`8`8`8`8`8`6",
"`5`8`8`8`8`8`8`f`y`7`a`i`N`f`O`.`g`4`K`7`u`K`.`E`i`.`u`g`N`8`S`Y`Y`v`V`0`L`Y`3`Q`f`F`Z`v`Z`I`x`t`.`Z`l`N`s`X`y`z`Z`C`H`t`y`4`X`F`E`l`a`s`X`v`N`#`j`8`8`8`8`8`8`6",
"`5`8`8`8`8`8`8`f`u`.`Q`t`i`f`Y`X`y`6`x`X`b`b`Y`0`K`l`P`t`i`8`.`w`N`X`x`F`7`Y`v`.`F`x`t`g`x`V`F`l`y`a`7`C`s`7`i`f`P`b`m`Z`u`#`b`v`O`t`E`F`l`m`K`0`#`8`8`8`8`8`8`6",
"`5`8`8`8`8`8`8`j`#`a`L`P`u`#`y`L`g`E`#`a`3`L`u`#`V`K`3`P`u`j`i`K`0`i`F`u`g`E`E`B`u`6`g`u`#`#`E`g`x`4`g`u`H`g`K`f`x`m`7`S`u`f`F`L`w`K`#`5`g`w`I`4`#`8`8`8`8`8`8`6",
"`5`8`8`8`8`8`8`8`8`#`V`V`#`8`V`V`V`2`8`#`V`V`#`8`8`#`V`V`j`8`V`2`j`V`2`2`V`j`j`V`2`8`V`j`8`8`8`V`j`8`V`j`8`V`2`8`#`0`F`I`x`j`#`V`V`#`8`8`V`V`V`8`8`8`8`8`8`8`8`6",
"`5`8`8`8`8`8`8`8`8`8`8`8`8`8`8`8`8`8`8`8`8`8`8`8`8`8`8`8`8`8`8`8`8`8`8`8`8`8`8`8`8`8`8`8`8`8`8`8`8`8`8`8`8`8`8`8`8`8`#`#`j`8`8`8`8`8`8`8`8`8`8`8`8`8`8`8`8`8`8`6",
"`5`8`8`8`8`8`8`8`8`8`8`8`8`8`8`8`8`8`8`j`j`8`8`j`8`8`8`j`j`8`8`j`j`j`j`8`j`j`8`8`j`j`j`8`8`j`j`8`j`j`8`8`8`j`j`8`8`j`j`8`8`8`8`8`8`8`8`8`8`8`8`8`8`8`8`8`8`8`8`6",
"`5`8`8`8`8`8`8`8`8`8`8`8`8`8`8`8`8`8`8`V`V`#`2`V`8`8`j`V`V`j`2`0`V`0`0`8`V`V`8`j`V`0`#`j`8`V`#`j`2`V`8`8`j`V`V`j`8`2`V`2`8`8`8`8`8`8`8`8`8`8`8`8`8`8`8`8`8`8`8`6",
"`5`8`8`8`8`8`8`8`8`8`8`8`8`8`8`8`8`j`2`K`B`z`F`y`6`f`0`B`I`V`5`g`g`g`C`2`I`I`#`4`y`3`C`4`f`I`C`V`K`B`j`#`x`g`N`#`f`a`i`E`#`8`8`8`8`8`8`8`8`8`8`8`8`8`8`8`8`8`8`6",
"`5`8`8`8`8`8`8`8`8`8`8`8`8`8`8`8`8`j`0`w`7`3`g`S`F`f`C`S`.`F`H`g`7`X`N`0`Y`v`f`B`Z`P`l`y`f`O`7`B`m`X`#`V`g`X`v`F`f`g`7`F`f`8`8`8`8`8`8`8`8`8`8`8`8`8`8`8`8`8`8`6",
"`5`8`8`8`8`8`8`8`8`8`8`8`8`8`8`8`8`j`0`L`t`Y`7`v`E`0`b`P`Y`3`V`f`S`3`f`H`v`O`f`3`m`E`S`3`f`m`v`t`l`Y`f`u`t`3`b`3`f`B`l`a`0`8`8`8`8`8`8`8`8`8`8`8`8`8`8`8`8`8`8`6",
"`5`8`8`8`8`8`8`8`8`8`8`8`8`8`8`8`8`j`0`w`v`x`v`v`z`K`.`L`w`t`F`2`b`P`f`z`Q`Q`f`K`Z`.`Z`K`f`O`B`K`Z`v`#`B`.`B`m`b`E`C`l`v`I`0`j`8`8`8`8`8`8`8`8`8`8`8`8`8`8`8`8`6",
"`5`8`8`8`8`8`8`8`8`8`8`8`8`8`8`8`8`8`2`u`K`f`E`K`2`u`K`4`4`N`x`j`K`a`#`0`a`a`#`V`K`B`a`#`#`a`F`f`a`K`8`a`a`f`E`N`E`E`N`B`K`2`j`8`8`8`8`8`8`8`8`8`8`8`8`8`8`8`8`6",
"`5`8`8`8`8`8`8`8`8`8`8`8`8`8`8`8`8`8`8`f`f`8`f`f`8`#`f`#`#`f`#`8`f`f`8`8`f`f`8`j`f`f`f`j`8`f`#`8`f`f`8`f`f`j`#`f`j`#`f`f`f`8`8`8`8`8`8`8`8`8`8`8`8`8`8`8`8`8`8`6",
"`5`8`8`8`8`8`8`8`8`8`8`8`8`8`8`8`8`8`8`8`8`8`8`8`8`8`8`8`8`8`8`8`8`8`8`8`8`8`8`8`8`8`8`8`8`8`8`8`8`8`8`8`8`8`8`8`8`8`8`8`8`8`8`8`8`8`8`8`8`8`8`8`8`8`8`8`8`8`8`6",
"`5`8`8`8`8`8`8`8`8`8`8`8`8`8`8`8`8`8`8`8`8`8`8`8`8`8`8`8`8`8`8`8`8`8`8`8`8`8`8`8`8`8`8`8`8`8`8`8`8`8`8`8`8`8`8`8`8`8`8`8`8`8`8`8`8`8`8`8`8`8`8`8`8`8`8`8`8`8`8`6",
"`5`8`8`8`8`8`8`8`8`8`8`8`8`8`8`8`8`8`8`8`8`8`8`8`8`8`8`8`8`8`8`8`8`8`8`8`8`8`8`8`8`8`8`8`8`8`8`8`8`8`8`8`8`8`8`8`8`8`8`8`8`8`8`8`8`8`8`8`8`8`8`8`8`8`8`8`8`8`8`6",
"`5`8`8`8`8`8`8`8`8`8`8`8`8`8`8`8`8`8`8`8`8`8`8`8`8`8`8`8`8`8`8`8`8`8`8`8`8`8`8`8`8`8`8`8`8`8`8`8`8`8`8`8`8`8`8`8`8`8`8`8`8`8`8`8`8`8`8`8`8`8`8`8`8`8`8`8`8`8`8`6",
"`5`8`8`8`8`8`8`8`8`8`8`8`8`8`8`8`8`8`8`8`8`8`8`8`8`8`8`8`8`8`8`8`8`8`8`8`8`8`8`8`8`8`8`8`8`8`8`8`8`8`8`8`8`8`8`8`8`8`8`8`8`8`8`8`8`8`8`8`8`8`8`8`8`8`8`8`8`8`8`6",
"`6`8`8`8`8`8`8`8`8`8`8`8`8`8`8`8`8`8`8`8`8`8`8`8`8`8`8`8`8`8`8`8`8`8`8`8`8`8`8`8`8`8`8`8`8`8`8`8`8`8`8`8`8`8`8`8`8`8`8`8`8`8`8`8`8`8`8`8`8`8`8`8`8`8`8`8`8`8`8`4",
"`x`6`6`6`6`6`6`6`6`6`6`6`6`6`6`6`6`6`6`6`6`6`6`6`6`6`6`6`6`6`6`6`6`6`6`6`6`6`6`6`6`6`6`6`6`6`6`6`6`6`6`6`6`6`6`6`6`6`6`6`6`6`6`6`6`6`6`6`6`6`6`6`6`6`6`6`6`6`6`x"
};
