/* XPM */
static const char *LOGO_MATIS_xpm[] = {
/* width height num_colors chars_per_pixel */
"    72    82      256            2",
/* colors */
"`` c #161622",
"`. c #837044",
"`# c #be9e42",
"`a c #c1a04b",
"`b c #efc64c",
"`c c #614a34",
"`d c #efca5c",
"`e c #f3da7b",
"`f c #8c7140",
"`g c #695b40",
"`h c #f6e292",
"`i c #8c8caf",
"`j c #764e2b",
"`k c #a2a1a1",
"`l c #95713d",
"`m c #f8eacc",
"`n c #e6a633",
"`o c #9c8148",
"`p c #e8b95f",
"`q c #faf2d2",
"`r c #855425",
"`s c #2c2c33",
"`t c #92929a",
"`u c #b2964d",
"`v c #e19f64",
"`w c #e9cc8f",
"`x c #90612f",
"`y c #3e3e40",
"`z c #eab23d",
"`A c #d2b464",
"`B c #fef6d6",
"`C c #b67c2e",
"`D c #b48638",
"`E c #efce7b",
"`F c #565657",
"`G c #a06427",
"`H c #d8d8d8",
"`I c #a88e4c",
"`J c #fefaf4",
"`K c #70708e",
"`L c #f4e3c1",
"`M c #caae52",
"`N c #eaba42",
"`O c #c8c6c4",
"`P c #f2ca4f",
"`Q c #c8b08a",
"`R c #564e3e",
"`S c #f6dec5",
"`T c #ba923e",
"`U c #f2dac0",
"`V c #9a968a",
"`W c #aa5b13",
"`X c #ae8a42",
"`Y c #5a5a7a",
"`Z c #bab9b9",
"`0 c #daa272",
"`1 c #d26e0a",
"`2 c #787891",
"`3 c #e3ae4e",
"`4 c #eacbaf",
"`5 c #ae5f1a",
"`6 c #675f46",
"`7 c #ae863e",
"`8 c #f2e4cf",
".` c #b26a1e",
".. c #9e9eb8",
".# c #be8a32",
".a c #7979a0",
".b c #c29e46",
".c c #c28e39",
".d c #da9757",
".e c #f6ecda",
".f c #47476a",
".g c #bc9845",
".h c #8d7949",
".i c #dcb24e",
".j c #e7c0a1",
".k c #f2ce52",
".l c #a67e5a",
".m c #5f503e",
".n c #fefefe",
".o c #e1bb61",
".p c #d4d2ce",
".q c #b8b8ca",
".r c #353439",
".s c #c28630",
".t c #f6e4d3",
".u c #eec246",
".v c #4b4a4a",
".w c #de9652",
".x c #ae8f51",
".y c #edc277",
".z c #eed9c4",
".A c #686871",
".B c #9494b2",
".C c #d5720c",
".D c #dedee5",
".E c #8e7e4e",
".F c #c0c0c0",
".G c #faebdf",
".H c #505072",
".I c #fdf6ed",
".J c #d67a13",
".K c #a8a8a9",
".L c #d0a475",
".M c #f9f2e0",
".N c #c89941",
".O c #cacaca",
".P c #d26202",
".Q c #474645",
".R c #d88032",
".S c #808082",
".T c #725e3e",
".U c #e2b25a",
".V c #eebe46",
".W c #b0b0b0",
".X c #38385e",
".Y c #cb7628",
".Z c #e6b26a",
".0 c #80704a",
".1 c #a4a4bb",
".2 c #1a1a24",
".3 c #eec7a0",
".4 c #625641",
".5 c #e6aa37",
".6 c #eaeaee",
".7 c #8c8ca4",
".8 c #d87e15",
"#` c #ba7222",
"#. c #ceced8",
"## c #db984c",
"#a c #8080a3",
"#b c #efe2d8",
"#c c #e8b98f",
"#d c #a29a7a",
"#e c #eeeef1",
"#f c #d9b750",
"#g c #df9627",
"#h c #b2925c",
"#i c #b0b0c3",
"#j c #c0c0d0",
"#k c #dc8a1e",
"#l c #565678",
"#m c #c6a246",
"#n c #3f3f62",
"#o c #b26319",
"#p c #35355a",
"#q c #f0d78e",
"#r c #20202a",
"#s c #81819a",
"#t c #f2d256",
"#u c #e1ab5b",
"#v c #c5a373",
"#w c #cda84b",
"#x c #f2e6d9",
"#y c #86764a",
"#z c #505068",
"#A c #d49a36",
"#B c #3a3a3d",
"#C c #d6d6e0",
"#D c #d17a2e",
"#E c #e6c8aa",
"#F c #9c743a",
"#G c #26264e",
"#H c #efd1bb",
"#I c #aa823e",
"#J c #9a9ab6",
"#K c #928a82",
"#L c #eab640",
"#M c #836034",
"#N c #d8ba8c",
"#O c #d89761",
"#P c #c68e32",
"#Q c #5f5f5f",
"#R c #c6c6d4",
"#S c #aaaabf",
"#T c #868686",
"#U c #b6863e",
"#V c #eec24a",
"#W c #2e2e56",
"#X c #ce6202",
"#Y c #f6f6f8",
"#Z c #8c8062",
"#0 c #424242",
"#1 c #f2f2f5",
"#2 c #d4863a",
"#3 c #d6760f",
"#4 c #b28a42",
"#5 c #e6a66e",
"#6 c #dfa979",
"#7 c #e2bb71",
"#8 c #e29e2e",
"a` c #de9646",
"a. c #de9224",
"a# c #d26602",
"aa c #d68e4f",
"ab c #dadae3",
"ac c #d37622",
"ad c #23234a",
"ae c #e3a231",
"af c #e6aa73",
"ag c #eed295",
"ah c #cc802e",
"ai c #d38139",
"aj c #cd6e19",
"ak c #686866",
"al c #d17a2a",
"am c #e6b37d",
"an c #524e42",
"ao c #eedaa9",
"ap c #f2cea6",
"aq c #d2b98e",
"ar c #76684c",
"as c #8686a5",
"at c #bea88c",
"au c #464654",
"av c #504f50",
"aw c #d69240",
"ax c #d98a3e",
"ay c #2d2d52",
"az c #616180",
"aA c #717070",
"aB c #cd6606",
"aC c #d47e2a",
"aD c #d0721e",
"aE c #26262e",
"aF c #323256",
"aG c #7f7f96",
"aH c #8d8d8e",
"aI c #faf2ec",
"aJ c #98989a",
"aK c #e7ae3a",
"aL c #e2b283",
"aM c #b37427",
"aN c #cacad6",
"aO c #f0cc6d",
"aP c #de8e21",
"aQ c #fafafb",
"aR c #e6e6eb",
"aS c #da861a",
"aT c #d26a07",
"aU c #eeba43",
"aV c #da8218",
"aW c #d98e3a",
"aX c #9d8a6e",
"aY c #52463c",
"aZ c #686886",
"a0 c #d98a42",
"a1 c #e19a2a",
"a2 c #dda44e",
"a3 c #e2b98e",
"a4 c #565670",
"a5 c #787777",
"a6 c #e2e2e8",
"a7 c #5a5a5a",
"a8 c #d2d2db",
/* pixels */
".n.n.n.n.n.n.n.n.n.n.n.n.n.n.n.n.n.n.n.n.n.n.n.n.n.n.n.n.n.n.n.n.n`L`w`d`d`d`d`E.e.n.n.n.n.n.n.n.n.n.n.n.n.n.n.n.n.n.n.n.n.n.n.n.n.n.n.n.n.n.n.n",
".n.n.n.n.n.n.n.n.n.n.n.n.n.n.n.n.n.n.n.n.n.n.n.n.n.n.n.n.n.n.n.V.V#V.u.u`b.u`b`b`b.n.n.n.n.n.n.n.n.n.n.n.n.n.n.n.n.n.n.n.n.n.n.n.n.n.n.n.n.n.n.n",
".n.n.n.n.n.n.n.n.n.n.n.n.n.n.n.n.n.n.n.n.n.n.n.n.n.n.n.n.n.n.y`N.u.V.u#V#V`b.u`b`b`M#e.n.n.n.n.n.n.n.n.n.n.n.n.n.n.n.n.n.n.n.n.n.n.n.n.n.n.n.n.n",
".n.n.n.n.n.n.n.n.n.n.n.n.n.n.n.n.n.n.n.n.n.n.n.n.n.n.n.n.n.n`N`N.V.u.u.V.u.u`b.u`b`P.W.n.n.n.n.n.n.n.n.n.n.n.n.n.n.n.n.n.n.n.n.n.n.n.n.n.n.n.n.n",
".n.n.n.n.n.n.n.n.n.n.n.n.n.n.n.n.n.n.n.n.n.n.n.n.n.n.n.n.n.n#L`N`N.V.u.V.u#V#V.u`b`ba5aQ.n.n.n.n.n.n.n.n.n.n.n.n.n.n.n.n.n.n.n.n.n.n.n.n.n.n.n.n",
".n.n.n.n.n.n.n.n.n.n.n.n.n.n.n.n.n.n.n.n.n.n.n.n.n.n.n.n.n.n#L#L#L`N.V`N.V.V.V.V.u.u.0.D.n.n.n.n.n.n.nao.k.k`e.n.n.n.n.n.n.n.n.n.n.n.n.n.n.n.n.n",
".n.n.n.n.n.n.n.n.n.n.n.n.n.n.n.n.n.nae`nao.n.n.n.n.n.n.n.n`w#L#L`N`N`N`N.V.u.V.V.u#V.i`Z.n.n.n.n.n.n`P`P.k.k.k#t.n.n.n.n.n.n.n.n.n.n.n.n.n.n.n.n",
".n.n.n.n.n.n.n.n.n.n.n.n.n.n.n.n#H#8aeaeaeae`4.n.n.n.n.n.n.i`z`z#L#L#L`N`N`N.V.V.u#V.ua5.n.n.n.n.M`P`b.k`P`P.k.k#t#t.n.n.n.n.n.n.n.n.n.n.n.n.n.n",
".n.n.n.n.n.n.n.n.n.n.n.n.n.n.n#ua1#8#8aeaeae`nam.n.n.n.n.o`z`z`z`z#L#L`N#L`N.V.V.V#V.V.u#V.M.n`L`b`b`b.k`P`P`P.k.k.k#t.n.n.n.n.n.n.n.n.n.n.n.n.n",
".n.n.n.n.n.n.n.n.n.n.n.n.n.n#8a1#ga1a1#8#8aeaeae`n.n.5.5.5aKaKaK`z`z`z#L#L#L`N`N`N.V.V`N.V#V.u.u`b`b`b`b`b`b`P.k.k.k.k#t.n.n.n.n.n.n.n.n.n.n.n.n",
".n.n.n.n.n.n.n.n.n.n.n.n.n#8a.#g#ga1a1a1#8#8aeaeaeae`n.5.5aKaKaKaKaK`z#L`z`zaUaU`N`N`N.V.V.V.V.u.u`b`b`b`b`b`b.k.k`P.k.kao.n.n.n.n.n.n.n.n.n.n.n",
".n.n.n.n.n.n.n.n.n.n.n.n#Ya.a.#g#g#ga1a1a1a1#8#8aeaeae`n`n.5.5#F`s.2aE.r`y`y`y.r#r#r`6`N.V.u.u.u.u`b.u`b`b`P`b`P`P`P.k.ka5.6.n.n.n.n.n.n.n.n.n.n",
".n.n.n.n.n.n.n.n.n.n.n.n#kaPa.a.a.a.#g#g#ga1a1a1#8#8ae`n.r.r.2``.2aE`san#QaAa5aA#Q.r`s#r#B#B#w`N.V.u.u`b`b`b`b`b`b`P`d#f#0a5aQ.n.n.n.n.n.n.n.n.n",
".n.n.n.n.n.n.n.n.n.n.n.n#H#kaPa.a.a.#g#g#g#ga1#8#8#8.QaE.r`s.2`savas.q#j`iaR.DaR.6#C.7#sa7av#0`s#f.V.u.u.u`b`b`b`b`b.k#0#0.K.n.n.n.n.n.n.n.n.n.n",
".n.n.n.n.n.n.n.n.n.n.n.n`J#kaPaPaPa.a.#ga.#g#ga1#F#r#BaE`s#Baz.K.B.6#ea6#C#e.aa6#Y#1#R#i`i`H.Wak#0`o.u`N.u.u`b`b`b`b`b#0av`H.n.n.n.n.n.n.n.n.n.n",
".n.n.n.n.n.n.n.n.n.n.n.n.n#k#k#kaPaPa.a.a.a.#g#0`s.r.r.v`Y`2#i`iaR#1aRas#eaQ#1.6a8#Ra8#i#CaQ.n#1`Z`R.r.V`N.V.u.u`b`b`##0#TaQ.n.n.n.n.n.n.n.n.n.n",
".n.n.n.n.n.n.n.n.n.n.n.n.n.p#k#kaP#kaPaPaPa..m#B.r`y`Faz#S#..B.Da6#J#Sa6#Y.naQababab#S`iaR.n.n.n.n`H.S#B.V#V.u.u.u`b#0.Q.O.n.n.n.n.n.n.n.n.n.n.n",
".n.n.n.n.n.n.n.n.n.n.n.n.n.n#h#kaS#kaPaPa.#B`y#0a7aN#.`i#e#e`i.D#e.6.1.B#1.n.6.1a8.B.D.6aQ.n.n.n.n.n.n`HaA`M.u.u.u`M`yaHaQ.n.n.n.n.n.n.n.n.n.n.n",
".n.n.n.n.n.n.n.n.n.n.n.n.n.n.6aS#kaS#k#k#B`y#0`k#C#C#..qaQaQ#Y#Y.naQ#1#1#Y#e.B#j#R.B.q#1.n.n.n.n.n.n.n.naR.S.V`N.u.uan.D.n.n.n.n.n.n.n.n.n.n.n.n",
".n.n.n.n.n.n.n.n.n.n.n.n.n.n.naVaSaS#k.Q`y#0aH.DaZaz`KaR.n.n.n.n.n.n.n#Y.D#a#C.B#i.q.1#Y.n.n.n.n.n.n.n.n.n.6#0.V`N.u.uaQ.n.n.n.n.n.n.n.n.n.n.n.n",
".n.n.n.n.n.n.n.n.n.n.n.n.n.n.ZaVaVaSaM#B`ya5#C#S`i.1#CaQ.n.n.n.n.n.n.n.D`K`iaN...B#SaR.n.n.n.n.n.n.n.n.n.n.n.F#m.V`N.V#C.n.n.n.n.n.n.n.n.n.n.n.n",
".n.n.n.n.n.n.n.n.n.n.n.n.n.n.8aV.8aV`s#B#Q`t#j.BaNaR#1.n.n.n.n.n.n.naQ#iaZ.B.aab.6#1.n.n.n.naQ.naQ#J#e.n.n.n#Y.W.V`N`N.u.u`b.u`b`b`d`E`L.n.n.n.n",
".n.n.n.n.n.n.n.n#x`4af##aw.J.8.8.8`GaE`F.B#eaQaQaQ.n.n.n.n.n.n.n.n.n.n#1..#ia6#YaQ#Y.n.n#Y...B#J.D..#J#e.n.n.n#YaG`N`N`N.V#V.V.V.u.u`b`b.n.n.n.n",
".n.n.n.n.n.n.C.C.C#3#3#3#3.J.8.J.8.raE.K#1aQ.n.n.n.n.n.n.n.n.n.n.n.naQ#1.DasaR.6.Das#C#e.6..a8ab.DaR#i#CaQ.n.naQa6#L`N`N.u`N.V.u.V#V`b`b#faQ.n.n",
".n.n.n.n.n`S`1`1.C.C#3#3#3#3.J.JaM`sauaR.n.n.n.n.n.n.n.n.n.n.n.n.n.n#Y.B#j#j#S#j#j.q#i`i#j`iaNaRaR#Y.6#R#1.n.n.n#1aJ#L`N`N`N.V.V.u#V#V.u.u.p.n.n",
".n.n.n.n.nax`1`1.C.C#3#3#3#3#3.J.r`s#iaQ.n.n.n.n.n.n.n.n.n.n.n.n.n.n#Y#S.Da6#R.Daz.q.B.q.q..#.ab#a#Y#Y#i#eaQ.naQ#Ya6#L`N`N`N`N`N.o.V#V.u.uaJ.n.n",
".n.n.n.n.naT`1`1`1`1.C.C#3#3#3.JaE#B.D.n.n.n.n.n.n.n.n.n.n.n.n.n.n.n#Y.D#a#Jaz.1#j#J#a.D#J`K#j#R#j#e.n#e#Jabab`i#C.D`A#L`N#L`N.V.V.V.V.V.u#Q#1.n",
".n.n.n.n.naTaTaT`1.C.C`1.C.C#3`G``a4.D.n.n.n.n.n.n.n.n.n.n.n.n.n.n.n#Y#C.q.1.6#1a6aZaNabaz`i.q`i`KaRaQ#1#i#i#j#C.D.1..#L#L#L#L`N`N.V`N.V.V`F`H.n",
".n.n.n.n.naBaT`1`1`1`1`1.C.C.CaY.2aHaNaQ.n.n.n.n.n.n.n.n.n.n.n.n.naQ.6#aa6#YaQ.naQ#eaRa8asa6aRab#i#j#e#Y#e#SaN.6#1#R#i`z`z#L#L#L#L`N.V`N.V`6`Z.n",
".n.n.n.n.naBaTaTaTaT`1`1.C.C.C#0aE.q`ZaQ.n.n.n.n.n.n.n.n.n.n.n.n.n.6#i.q#1.n.n.n.naQaQ#Y#YaQaQaQa6.1#R#eaQ#1a6.6#YaR#iaK`z`z`z`z#L#L#L`N`N.x`t.n",
".n.n.n.n`4aBaBaBaTaT`1`1`1`1.C`yaua8#e.n.n.n.n.n.n.n.n.n.n.n.n.n#e`Ya6#1aQ.n.n.n.n.n.n.n.n.n.n.n#Y#j#S#.#YaQ.D#eaQ#YaNaK`z`z#L`z#L#L`N#L`N#fa5aQ",
".n.n.n.n#Ea#a#aTaTaBaTaTaT`1`1`y`s.H.D#Y.n.n.n.n.n.n.n.n.n.n.n#e#z#eaQ.n.n.n.n.n.n.n.n.n.n.n.n.n.n#e.1aNabaR.1#1.naQ#e.5aKaKaKaK`z#L#L#L`g`y#QaR",
".n.n.n.n.ja#a#a#aBaTaTaTaTaTaT#0az.OaFa6.n.n.n.n.n.n.n.n.n.n.naR.DaQ.n.n.n.n.n.n.n.n.n.n.n.n.n.n.naQaR#l.a`i.B#1.n.n`J.5aKaKaKaK`z#L`f#0#0#0#Q.D",
".n.n.n.n.naqaBaBa#aTaTaTaT`1aT#0.S#Y.D#.#e.n.n.n.n.n.n.n.n.naQ.Da6.n.n.n.n.n.n.n.n.n.n.n.n.n.n.n.n.naQ.D`K#Jas#e.n.n.n`n.5.5aKaK.T`y`y`y#0.S.paQ",
".n.n.n.n.n`H.v`ca#a#aBaTaBa#aT.Q.F.naQaF#C#Y.n.n.n.n.n.n.n.n#1`KaR.n.n.n.n.n.n.n.n.n.n.n.n.n.n.n.n.n.n#YaRa8.7#1.n.n.n`n`n`n#y#0#0#0#0#Q.K#Y.n.n",
".n.n.n.n.n#1aJ`F`y`y#oaTaBaTaT.Q`O.n.n.Dada6.n.n.n.n.n.n.n.n#Y#jaR.n.n.n.n.n.n.n.n.n.n.n.n.n.n.n.n.n.n.naQ.6.DaQ.n.n.n`nae`n`g`y#0#Q.KaR.n.n.n.n",
".n.n.n.n.n.n.n#Y.Wa5an#0`y#0`y#0.W.n.n.n.qa8aQ.n.n.n.n.n.n.naQ.6aZ#eaQ.n.n.naQaQ.n.n.n.n.n.n.n.n.n.n.n.n#Y.D#e.n.n.n.naeae`n`y#QaR.n.n.n.n.n.n.n",
".n.n.n.n.n.n.n.n.n#Y.p`kaAakakak.F.n.n.nab#j.6.n.n.n.n.n.n.n.naQ#eaz.6.6#e.6.D.DaR#eaQ.n.n.n.n.n.n.n.naQaR..#Y.n.n.n.naeae`n`ya5.n.n.n.n.n.n.n.n",
".n.n.n.n.n.n.n.n.n.n.n.naQ#Y#Y#YaQ.n.n.n#e`2.q#eaQ.n.n.n.n.n.n.naQ.6`KaZ`K...DaNaz.f.6.n.n.n.n.n.n.n.n#1#JaR.n.n.n.n`L#8#8ae#0#T.n.n.n.n.n.n.n.n",
".n.n.n.n.n.n.n.n.n.n.n.n.n.n.n.n.n.n.n.n.n.6.q.q.6.n.n.n.n.n.n.n.naQ#Y#e#1#1#Y#1.D.7.DaQ.n.n.n.n.n.naQaR.O#Y.n.n.n.n#8#8#8#8ae.K.n.n.n.n.n.n.n.n",
".n.n.n.n.n.n.n.n.n.n.n.n.n.n.n.n.n.n.n.n.n.n#1#i.F#e.n.n.n.n.n.n.n.n.n.n.n.n.n.n#eaza8aQ.n.n.n.n.n.n#Y..aRaQ.n.n.n.n#ga1a1#8#8ae.n.n.n.n.n.n.n.n",
".n.n.n.n.n.n.n.n.n.n.n.n.n.n.n.naQ.n.n.n.n.n.na6`kabaQ.n.n.n.n.n.n.n.n.n.n.n.n.naQab#naR.n.n.n.n.n.n#Y#.#Cab.DaQ.n#u#g#ga1a1a1#8#8.3.n.n.n.n.n.n",
".n.n.n.n.n.n.n.n.3.n.n.n.n.n.n.n.naB#X.n.n.n.nab#pa6.n.n.n.n.n.n.n.n.n.n.n.n.n.n.n#e.F#R.n.n.n.n.n.n#1aNaNaZ.DaQ.na.#g#g#ga1a1a1#8#8#7.n.n.n.n.n",
".n.n.n.n.n.n.n`J#Xaj.n.n.n.n.n.n.naBaB.n.n.n.nab#i#e.n.n.n.n.n.n.n.n.n.n.n.n.n.n.n#1#.#SaQ.n.n.n.naQaRazas#R.6.n#ua.a.a.a.#g#ga1a1#8#8#E.n.n.n.n",
".n.n.n.n.n.n.na3#X#X.n.n.n.n.n.n#O#X#X.n.n.n.n.D#n#e.n.n.n.n.n.n.n.n.n.n.n.n.n.n.n#e#Jab.n.n.n.n.n.6`2#.`t..#Y.naPaPa.a.#ga.#g#ga1a1#8#8#Y.n.n.n",
".n.n.n.n.n.n.n`va##X.n.n.n.n.n.n.P#X#X.n.n.n#Ya8.7#1.n.n.n.n.n.n.n.n.n.n.n.n.n.n.n.6.fa6.n.n.n.naQ#.#CaN#Sa6.n#k#kaPaPaPa.a.a.#g#g#ga1ar`k.n.n.n",
".n.n.n.n.n.n.n#D.P#X.n.n.n.n.n#x#XaBaD.n.n.naRa8.6aQ.n.n.n.n.n.n.n.n.n.n.n.n.n.n.n#e`tab.n.n.n#YaR.7#ea6.6aQ#kaS#kaSaPaPa.a.a.#ga.#g#g`yav#Y.n.n",
".n.n.n.n.n.n.naB#X.P.n.n.n.n.naT#X.Pai.n.n.na6a6.n.n.n.n.n.n.n.n.n.n.n.n.n.n.n.n.n#Y#.aN.n.naQ.6`Y.6aQaQaQ#xaSaSaS#k#k#kaPa.aPa.#g#g#0`ya5.n.n.n",
".n.n.n.n.n.n.na#a#.P.n.n.n.n.n.P#X#X.j.n.n.naZa6.n.n.n.n.n.n.n.n.n.n.n.n.n.n.n.n.n.nab`2#1#ea6asa6aQ.n.naQaVaVaVaS#k#k#kaP#kaPa.a.a.`y.Q.F.n.n.n",
".n.n.n.n.n.n.n#X.P#X.n.n.n.n.e#X#X#X#H.n.n.n.6..#1.n.n.n.n.n.n.n.n.n.n.n.n.n.n.n.n.n#e`2#C#s`2aR#Y.n.n#H.8.8.8aSaSaVaSaS#kaPaPaPaP`y`ya5#Y.n.n.n",
".n.n.n.n.n.n.n.P#X#X.n.n.n.naTa##X#X.n.n.n.naQ.6#1.n.n.n.n.n.n.n.n.n.n.n.n.n.n.n.n.naQaR`H.6#1aQ.n.n`0.J.J.8aV.TahaVaVaS#k#k#kaP.s`y.v`O.n.n.n.n",
".n.n.n.n.n.n.na#a##X.n.n.n.n#X#X#X#X.n.n.n.n.n.n.n.n.n.n.n.n.n.n.n.n.n.n.n.n.n.n.n.n.n.n.n.n.n.n.e#3#3#3.J.J`y#0`y#0`yaY.`aSaSaS`y#0`kaQ.n.n.n.n",
".n.n.n.n.n.n.e#XaBaB.I.n.n.ea##X.P#X.n.n.n.n.n.n.n.n.n.n.n.n.n.n.n.n.n.n.n.n.n.n.n.n.n.n.n.n`J#3.C#3#3#3#3.Q`y#0a5#T`6#0`y#0`y#0`ya7a6.n.n.n.n.n",
".n.n.n.n.n.naLa##XaB.t.n.naTa#aBa##X.n.n.n.n.n.n.n.n.n.n.n.n.n.n.n.n.n.n.n.n.n.n.n.n.n.n.n.n.n.n.n.D#T.Q#0#0#0#T#1`JaR`Z#Kakan.Q.Q`Z.n.n.n.n.n.n",
".n.n.n.n.n.naB#X#X#X`4.n.n#Xa##H#X#X.n.n.n.n.n.n.n.n.n.n.n.n.n.n.n.n.n.n.n.n.n.n.n.n.n.n.n.n.n#Y`Oa7#0#0`y#0`V#e.n.n.n.n.n#e.D.O.F#Y.n.n.n.n.n.n",
".n.n.n.n.n.naBa##X.P.w.n.na#aBapa##X.n.n.n.n.n.n.n.n.n.n.n.n.n.n.n.n.n.n.n.n.n.n.n.n.n.n.n.n.n#Y.O.O.O.O.O#.aQ.n.n.n.n.n.n.n.n.n.n.n.n.n.n.n.n.n",
".n.n.n.n.n.n#X.P#X#X.Y.n#Y#XajaaaBa#.n.n.n.n.n.n.n.n.n.n.n.n.n.n.n.n.n.n.n.n.n.n.n.n.n.n.n.n.n.n.n.n.n.n.n.n.n.n.n.n`U.n.n.n.n.n.n.n.n.n.n.n.n.n",
".n.n.n.n.n#H.Pac#X#XaB.n.d#X.jai#Xa#.n.n.n.n.n.n.n.n.n#X`1.n.n.n.n.n.n`v#X#X#X#X#X#X#X#Xa#.n.n.n.na#.n.n.n.n.n#5#XaBaB.P#Xax.n.n.n.n.n.n.n.n.n.n",
".n.n.n.n.nac.P.zaB#X#X.n.P.P.naC#X#X.n.n.n.n.n.n.n.n.G#X.P.n.n.n.n.n.n.n.n.n.naf#X.n.n.n.n.n.n.n.n.P.n.n.n.n.n.P.n.n.n.n.n#Xam.n.n.n.n.n.n.n.n.n",
".n.n.n.n.na#aB.naT#X#X.n#XaB.nal#X#X.n.n.n.n.n.n.n.n#X.3aB`v.n.n.n.n.n.n.n.n.nama#.n.n.n.n.n.n.n.n.P.n.n.n.nam#X.n.n.n.n.n.I.w.n.n.n.n.n.n.n.n.n",
".n.n.n.n.n#X#X.nam#X#X.ta##X.naC.P.P.n.n.n.n.n.n.n.G#X.n.n.P.n.n.n.n.n.n.n.n.nama#.n.n.n.n.n.n.n.n.P.n.n.n.n.n.Pap.n.n.n.n.n.n.n.n.n.n.n.n.n.n.n",
".n.n.n.n`4#Xai.n.I#XaBaB#X.j.nai#X#X.n.n.n.n.n.n.n.P.j.n.n#Xa0.n.n.n.n.n.n.n.naf#X.n.n.n.n.n.n.n.n#X.n.n.n.n.n.n#Xa#.w.n.n.n.n.n.n.n.n.n.n.n.n.n",
".n.n.n.naBaB`U.n.n#Xa##X#X.n.naaaBaB.n.n.n.n.n.n.n#X.n.n.n.n#X.n.n.n.n.n.n.n.nama#.n.n.n.n.n.n.n.n.P.n.n.n.n.n.n.n.n#5a##X.t.n.n.n.n.n.n.n.n.n.n",
".n.n.n.na#aB.n.n.n#X#X#X#X.n.n`4.PaB.n.n.n.n.n.naTac.n.n.n.n#X.3.n.n.n.n.n.n.naf#X.n.n.n.n.n.n.n.n#X.n.n.n.n.n.n.n.n.n.naQ#X.R.n.n.n.n.n.n.n.n.n",
".n.n.n.n#X.P.n.n.n.Pa#a##X.n.n#x#X#X.n.n.n.n.n.n#X.n.n.n.n.n.GaB.n.n.n.n.n.n.nama#.n.n.n.n.n.n.n.n.P.n.n.n.n.n.n.n.n.n.n.n.n#X.n.n.n.n.n.n.n.n.n",
".n.n.n`0a##O.n.n.n#6a#a##X.n.n.n#X.P.n.n.n.n.n`1#XaBaBaBaB#X#XaBam.n.n.n.n.n.nama#.n.n.n.n.n.n.n.n.P.n.n.n.nam.P.n.n.n.n.n.naB.n.n.n.n.n.n.n.n.n",
".n.n.naBaB`J.n.n.n.n#Xa#`J.n.n.n#X.PaB.n.n.n.naB.n.n.n.n.n.n.n.Ia#.n.n.n.n.n.naf#X.n.n.n.n.n.n.n.n#X.n.n.n.n.naT.P.I.n.n.n.P.P.n.n.n.n.n.n.n.n.n",
".n.n.n#X.P.n.n.n.n.n.n.n.n.n.n.n#X#X#X.n.n.n.n.P.n.n.n.n.n.n.n.n#X.n.n.n.n.n.nama#.n.n.n.n.n.n.n.n.P.n.n.n.n.n.n.3#X#X#X#Xam.n.n.n.n.n.n.n.n.n.n",
".n.n.n#XaB.n.n.n.n.n.n.n.n.n.n.n.PaB`1.n.n.n.n.n.n.n.n.n.n.n.n.n.n.n.n.n.n.n.n.n.n.n.n.n.n.n.n.n.n.n.n.n.n.n.n.n.n.n.n.n.n.n.n.n.n.n.n.n.n.n.n.n",
".n.naLaB.d.n.n.n.n.n.n.n.n.n.n.n#X#X#E.n.n.n.n.n.n.n.n.n.n.n.n.n.n.n.n.n.n.n.n.n.n.n.n.n.n.n.n.n.n.n.n.n.n.n.n.n.n.n.n.n.n.n.n.n.n.n.n.n.n.n.n.n",
".n.n.P#X.n.n.n.nax.P.P.P.P.P.P.P.P.P.n.n.Z.Z.Z.Z.Z.Z.Z.Z.Z`S.n.n.y.y.y.y.y.y.y.y.y.n.n.V.V.V.V.V.V.V.V.V`J.n`h`h`h`h`h`h`h`h`h`h.n.n.n.n.n.n.n.n",
".n.n.P.P.n.n.n.nax#X#X#X#X#X#XaBaBaB#1.naSaSaSaSaSaSaSaSaS.3.n.n#8#8#8#8#8#8#8#8#8aQ.n.V.V.V.V.V.V.V.V.V.6#Y#t#t#t#t#t#t#t#t#t#t.n.n.n.n.n.n.n.n",
".n.na##X.n.n.n.n#2#X#X#X#X#Xa##X#X#XaA.DaSaSaSaSaSaSaSaSaS`X.KaQ#8#8#8#8#8#8#8#8#8#K#C.V`N`N`N`N`N`N`N`Nar`t#t#t#t#t#t#t#t#t#t#t`k#Y.n.n.n.n.n.n",
".n.n#X`v.n.n.n.naxa#a#a#a#a##X#X#X#Xav`HaSaSaSaSaSaSaSaSaS#Mak#Y#8#8#8#8#8#8#8#8ae`y`Z.V`N`N`N`N`N.u`N.Van.S#t#t#t#t#t#t#t#t#t#t#Q#e.n.n.n.n.n.n",
".naL#X`J.n.n.n.nax#X#X#X#X#X#X#Xa##X.v`HaSaSaSaSaSaSaSaSaS#MaA#1aeaeaeaeaeae#8#8ae`y.F.V`N`N`N`N`N.u.u.Van.S#t#t#t#t#t#t#t#t#t#t#Q#1.n.n.n.n.n.n",
".n#XaB.n.n.n.n.nax#X#X#X#X#X#X#XaB#X.v`HaSaSaSaSaSaSaSaSaS#MaA#Yaeaeaeaeaeae#8#8#8`y.F.V`N`N.V.V`N.V`N.Van.S#t#t#t#t#t#t#t#t#t#t#Q#1.n.n.n.n.n.n",
".naB.P.n.n.n.n.na0#X#X#X#X#Xa##X#X#Xav`HaSaSaSaSaSaSaSaSaS#Mak#Y#8#8#8#8#8#8#8#8ae#0`Z.u`N`N.u`N.V`N.V`Nan.S#t#t#t#t#t#t#t#t#t#t#Q#e.n.n.n.n.n.n",
".za#aD.n.n.n.n.n#2#X#X#X#X#X#X#X.P#Xav`HaSaSaSaSaSaSaSaSaS#Mak#Y#8#8#8#8#8#8#8ae#8`y.F.V.V.V`N`N`N.u.u`N.v.S#t#t#t#t#t#t#t#t#t#t#Q#1.n.n.n.n.n.n",
".PaB#c.n.n.n.n.naxa#a#a##X#X#X#X.PaBav`HaSaSaSaSaSaSaSaSaS#MaA#1#8#8#8#8#8ae#8#8#8#0`Z`N.V`N.V.u`N.V.u`Nan.S#t#t#t#t#t#t#t#t#t#t#Q#e.n.n.n.n.n.n",
"aB`4.n.n.n.n.n.nafaC`W`W`W`W`W`W`W`Wav`HaSaSaSaSaSaSaSaSaS#MaA#1#A#A#8#8#8ae#8#8ae#0.F`E`a`#`#.g`#`#`#`#.Q.S#t#t#t#t#t#t#t#t#t#t#Q#e.n.n.n.n.n.n",
".n.n.n.n.n.n.n.n.n.O#0`y`y`y`y#0`y#0.v`H.n.K`y`y#0`y`y#0#0#0aA#Y#e#0`y`y`y`y#0#0`y#0`Z.n#Q#0#0`y#0`y#0`y#0a5.n.W#0`y#0`y#0#0#0`y#Q#1.n.n.n.n.n.n",
".n.n.n.n.n.n.n.n.nab#K#T#T#T#T#T#T#TaHaR.n.W#Q#Q#Q#Q#Q#Q#Q#Q#TaQ#e#Q#Q`6`6#Q`6`6#Q#Q`O.n`V#T#T#T#T#T#T#T#T.K.n`Z`6`6`6#Q`6#Q#Q#Q.S#1.n.n.n.n.n.n"
};
