/* XPM */
static const char * mActionDeleteVertex_xpm[] = {
"26 25 191 2",
"  	c None",
". 	c #000000",
"+ 	c #080000",
"@ 	c #300404",
"# 	c #640303",
"$ 	c #6D0101",
"% 	c #330202",
"& 	c #5A0707",
"* 	c #720707",
"= 	c #8B0303",
"- 	c #730101",
"; 	c #6E0404",
"> 	c #740606",
", 	c #6B0808",
"' 	c #7A0606",
") 	c #760202",
"! 	c #7E0404",
"~ 	c #750707",
"{ 	c #690707",
"] 	c #590505",
"^ 	c #750202",
"/ 	c #6E0505",
"( 	c #570606",
"_ 	c #1F0303",
": 	c #2D0202",
"< 	c #3A0202",
"[ 	c #2C0101",
"} 	c #1C0101",
"| 	c #010000",
"1 	c #110303",
"2 	c #370606",
"3 	c #590606",
"4 	c #720505",
"5 	c #850404",
"6 	c #820202",
"7 	c #6C0101",
"8 	c #3A0101",
"9 	c #140000",
"0 	c #1A0505",
"a 	c #795555",
"b 	c #9C6666",
"c 	c #A56060",
"d 	c #912424",
"e 	c #8D0505",
"f 	c #9B0C0C",
"g 	c #B64444",
"h 	c #C26363",
"i 	c #B26262",
"j 	c #641D1D",
"k 	c #110000",
"l 	c #1D0202",
"m 	c #4C0606",
"n 	c #A26666",
"o 	c #F0EBEB",
"p 	c #F3EFEF",
"q 	c #C39191",
"r 	c #8C1616",
"s 	c #A83E3E",
"t 	c #EEDEDE",
"u 	c #F4EFEF",
"v 	c #E3BBBB",
"w 	c #9F0F0F",
"x 	c #440101",
"y 	c #100000",
"z 	c #410404",
"A 	c #6E0707",
"B 	c #7B1212",
"C 	c #CFADAD",
"D 	c #F6F6F6",
"E 	c #EFE8E8",
"F 	c #A35555",
"G 	c #D6B0B0",
"H 	c #F7F7F7",
"I 	c #EEE0E0",
"J 	c #BA4A4A",
"K 	c #A60404",
"L 	c #820101",
"M 	c #260101",
"N 	c #500404",
"O 	c #790707",
"P 	c #790808",
"Q 	c #954242",
"R 	c #E3D2D2",
"S 	c #E0CCCC",
"T 	c #F5F3F3",
"U 	c #F4F0F0",
"V 	c #CA8A8A",
"W 	c #A11313",
"X 	c #A20202",
"Y 	c #950202",
"Z 	c #420101",
"` 	c #650404",
" .	c #7F0505",
"..	c #7B0707",
"+.	c #7C1010",
"@.	c #B27878",
"#.	c #F1ECEC",
"$.	c #DEC1C1",
"%.	c #9F3232",
"&.	c #950404",
"*.	c #9D0303",
"=.	c #9C0202",
"-.	c #540101",
";.	c #680303",
">.	c #840505",
",.	c #800606",
"'.	c #7E0E0E",
").	c #B47979",
"!.	c #DABEBE",
"~.	c #962E2E",
"{.	c #8D0606",
"].	c #960404",
"^.	c #970303",
"/.	c #520202",
"(.	c #5B0202",
"_.	c #890303",
":.	c #850606",
"<.	c #9F4545",
"[.	c #E6D7D7",
"}.	c #E9DEDE",
"|.	c #F4F1F1",
"1.	c #BF8989",
"2.	c #8B1515",
"3.	c #8F0404",
"4.	c #880404",
"5.	c #3F0202",
"6.	c #520101",
"7.	c #870303",
"8.	c #911515",
"9.	c #D5B1B1",
"0.	c #AA6868",
"a.	c #DDC7C7",
"b.	c #EADEDE",
"c.	c #A35353",
"d.	c #860808",
"e.	c #270202",
"f.	c #700202",
"g.	c #BC7070",
"h.	c #F5F2F2",
"i.	c #F7F6F6",
"j.	c #C79A9A",
"k.	c #821919",
"l.	c #A05555",
"m.	c #F0EAEA",
"n.	c #DBC3C3",
"o.	c #7C1919",
"p.	c #390404",
"q.	c #4D2424",
"r.	c #C29E9E",
"s.	c #D9B7B7",
"t.	c #CFA0A0",
"u.	c #9A3939",
"v.	c #7C0707",
"w.	c #801717",
"x.	c #B47D7D",
"y.	c #D3B8B8",
"z.	c #CCB6B6",
"A.	c #755454",
"B.	c #130202",
"C.	c #1B0000",
"D.	c #5D0202",
"E.	c #720303",
"F.	c #760404",
"G.	c #780606",
"H.	c #700606",
"I.	c #630707",
"J.	c #500707",
"K.	c #290505",
"L.	c #080101",
"M.	c #330101",
"N.	c #440303",
"O.	c #470303",
"P.	c #3E0303",
"Q.	c #2F0404",
"R.	c #1C0303",
"S.	c #070000",
"T.	c #240202",
"U.	c #540606",
"V.	c #7C0505",
"W.	c #830202",
"X.	c #5F0505",
"Y.	c #6C0808",
"Z.	c #8C0404",
"`.	c #7D0101",
" +	c #7B0606",
".+	c #700707",
"++	c #650303",
"@+	c #770303",
"#+	c #6F0606",
"$+	c #5B0707",
"%+	c #220202",
"                                                    ",
"  . + @ # $                                         ",
"    % & * = -                                       ",
"    ; > , ' )                                       ",
"      ! ~ { ]                                       ",
"      ^ / (         _ : < < [ }                     ",
"              | 1 2 3 4 5 = 6 7 8 9                 ",
"              0 a b c d e f g h i j k               ",
"            l m n o p q r s t u v w x y             ",
"            z A B C D E F G H I J K L M             ",
"            N O P Q R H S T U V W X Y Z             ",
"            `  ...+.@.#.H H $.%.&.*.=.-.            ",
"            ;.>.,.'.).p H H !.~.{.].^./.            ",
"            (._.:.<.[.H }.D |.1.2.3.4.5.            ",
"            6.7.8.9.H E 0.a.H b.c.d.; e.            ",
"              f.g.h.i.j.k.l.m.H n.o.p.              ",
"              q.r.s.t.u.v.w.x.y.z.A.B.              ",
"                C.D.E.F.G.H.I.J.K.L..               ",
"                    M.N.O.P.Q.R.    . S.            ",
"                                      T.U.V.W.      ",
"                                      X.Y., Z.`.    ",
"                                      E. +Y..+++    ",
"                                        @+#+$+%+.   ",
"                                                .   ",
"                                                    "};
