/* XPM */
static const char * mActionAddVertex_xpm[] = {
"26 25 115 2",
"  	c None",
". 	c #000000",
"+ 	c #0C0101",
"@ 	c #460505",
"# 	c #690303",
"$ 	c #3A0303",
"% 	c #620808",
"& 	c #7A0606",
"* 	c #8C0303",
"= 	c #720404",
"- 	c #720707",
"; 	c #6B0808",
"> 	c #810505",
", 	c #6D0202",
"' 	c #F8A80A",
") 	c #750101",
"! 	c #7F0505",
"~ 	c #710707",
"{ 	c #6C0707",
"] 	c #540404",
"^ 	c #F8A70A",
"/ 	c #780202",
"( 	c #6B0505",
"_ 	c #4F0606",
": 	c #F9A809",
"< 	c #F9B009",
"[ 	c #FBCE05",
"} 	c #FABF07",
"| 	c #7B5305",
"1 	c #FDE602",
"2 	c #FDE702",
"3 	c #F9AF09",
"4 	c #160F01",
"5 	c #7C5405",
"6 	c #F8B409",
"7 	c #FEF101",
"8 	c #FFF900",
"9 	c #FBD205",
"0 	c #F8AC09",
"a 	c #F8AB0A",
"b 	c #F8AB09",
"c 	c #F8A90A",
"d 	c #DE9509",
"e 	c #E59E09",
"f 	c #FBCC06",
"g 	c #FEF701",
"h 	c #FFFD00",
"i 	c #FEF401",
"j 	c #FCDA04",
"k 	c #FCD405",
"l 	c #FCD804",
"m 	c #F9B409",
"n 	c #F8AC0A",
"o 	c #F9B908",
"p 	c #FBCA06",
"q 	c #FCD904",
"r 	c #FEF002",
"s 	c #FFFC00",
"t 	c #FFFA00",
"u 	c #FABA08",
"v 	c #FDE802",
"w 	c #FFF701",
"x 	c #FDE603",
"y 	c #F8AA0A",
"z 	c #FABB07",
"A 	c #FEEC02",
"B 	c #FFFB00",
"C 	c #F9B508",
"D 	c #FCDB04",
"E 	c #F8AD09",
"F 	c #F8A911",
"G 	c #FABD08",
"H 	c #F8AB15",
"I 	c #FABC08",
"J 	c #FEEF02",
"K 	c #FCD704",
"L 	c #FFF501",
"M 	c #FAC007",
"N 	c #FABE07",
"O 	c #FCDD04",
"P 	c #FEEA02",
"Q 	c #FDDF03",
"R 	c #F9BA07",
"S 	c #F8A80B",
"T 	c #F7A910",
"U 	c #F9AD09",
"V 	c #E69B09",
"W 	c #F9B109",
"X 	c #F9B209",
"Y 	c #F6A60A",
"Z 	c #E99D09",
"` 	c #AF7607",
" .	c #442E03",
"..	c #4A3203",
"+.	c #0B0700",
"@.	c #1E0202",
"#.	c #610404",
"$.	c #F7A70A",
"%.	c #0F0101",
"&.	c #530606",
"*.	c #6F0707",
"=.	c #900404",
"-.	c #730101",
";.	c #630303",
">.	c #730606",
",.	c #6D0808",
"'.	c #810606",
").	c #7E0303",
"!.	c #750808",
"~.	c #710808",
"{.	c #5B0404",
"].	c #6B0202",
"^.	c #700505",
"/.	c #590606",
"(.	c #280202",
"    .                                               ",
"    . + @ #                                         ",
"      $ % & *                                       ",
"      = - ; > ,         '                           ",
"      ) ! ~ { ]         ^ ^                         ",
"        / ( _         : < '                         ",
"              . .     ^ [ } ^                       ",
"                . . | ' 1 2 3                       ",
"                  4 5 6 7 8 9 0 a b 0 c ^           ",
"                  d e f g h i j k l 9 m '           ",
"            ^ n o p q r s h h h h t k 0             ",
"          ^ ^ u v w h h h h h h h x 3 ^             ",
"              y z A B h h h h h g C '               ",
"                ^ < D 8 h h h h 7 E                 ",
"                  F G r h h h h s z ^               ",
"                  H I J h 8 r t h K ^               ",
"                  ^ } r L M < N O P 0               ",
"                  ^ } Q R S T ' ^ 3 U V             ",
"                  ^ W X '         Y Z `  .          ",
"                  ^ ^ ^               ..+.@.#.      ",
"                    $.                  %.&.*.=.-.  ",
"                                        ;.>.,.'.).  ",
"                                          > !.~.{.  ",
"                                          ].^./.(.  ",
"                                                    "};
