/* XPM */
static const char * mActionCaptureLine_xpm[] = {
"26 25 116 2",
"  	c None",
". 	c #000000",
"+ 	c #040000",
"@ 	c #1E0202",
"# 	c #400101",
"$ 	c #340404",
"% 	c #5D0606",
"& 	c #870505",
"* 	c #900303",
"= 	c #750101",
"- 	c #510404",
"; 	c #680707",
"> 	c #6B0808",
", 	c #7C0707",
"' 	c #920505",
") 	c #A10202",
"! 	c #820101",
"~ 	c #670404",
"{ 	c #780707",
"] 	c #710808",
"^ 	c #700808",
"/ 	c #800707",
"( 	c #950404",
"_ 	c #9E0202",
": 	c #430101",
"< 	c #710303",
"[ 	c #810505",
"} 	c #740707",
"| 	c #6A0808",
"1 	c #6F0808",
"2 	c #830707",
"3 	c #920404",
"4 	c #480101",
"5 	c #6C0101",
"6 	c #860404",
"7 	c #7E0606",
"8 	c #6F0707",
"9 	c #6C0808",
"0 	c #740909",
"a 	c #710606",
"b 	c #7F0404",
"c 	c #750606",
"d 	c #6B0707",
"e 	c #590707",
"f 	c #3F0505",
"g 	c #300202",
"h 	c #360303",
"i 	c #020000",
"j 	c #2A0101",
"k 	c #3B0606",
"l 	c #670707",
"m 	c #790404",
"n 	c #870202",
"o 	c #690101",
"p 	c #410404",
"q 	c #570303",
"r 	c #460202",
"s 	c #160000",
"t 	c #4F0505",
"u 	c #690808",
"v 	c #6E0909",
"w 	c #8D0404",
"x 	c #A30303",
"y 	c #550707",
"z 	c #730808",
"A 	c #8B0606",
"B 	c #950303",
"C 	c #760202",
"D 	c #460101",
"E 	c #760707",
"F 	c #6E0808",
"G 	c #7F0606",
"H 	c #970404",
"I 	c #3B0000",
"J 	c #590505",
"K 	c #6F0909",
"L 	c #7A0808",
"M 	c #8E0505",
"N 	c #9B0303",
"O 	c #680808",
"P 	c #870606",
"Q 	c #920303",
"R 	c #310101",
"S 	c #170101",
"T 	c #710404",
"U 	c #940505",
"V 	c #8E0202",
"W 	c #730202",
"X 	c #870404",
"Y 	c #7B0606",
"Z 	c #6D0707",
"` 	c #750808",
" .	c #740505",
"..	c #130101",
"+.	c #0E0000",
"@.	c #7D0606",
"#.	c #720707",
"$.	c #6D0808",
"%.	c #840606",
"&.	c #7D0404",
"*.	c #780202",
"=.	c #800505",
"-.	c #600808",
";.	c #380505",
">.	c #5D0101",
",.	c #850404",
"'.	c #800606",
").	c #500505",
"!.	c #6C0202",
"~.	c #660505",
"{.	c #580606",
"].	c #690202",
"^.	c #740404",
"/.	c #6F0606",
"(.	c #620606",
"_.	c #4B0707",
"                                                    ",
"  . .                                               ",
"    .                                               ",
"    . .                                             ",
"      + @ #                                         ",
"      $ % & * =                                     ",
"    - ; > , ' ) !                                   ",
"    ~ { ] ^ / ( _ :                                 ",
"    < [ } | 1 2 3 4                                 ",
"    5 6 7 8 9 0 a                                   ",
"      5 b c d e f                                   ",
"          g h                                       ",
"          i                                         ",
"          .                                         ",
"                                                . . ",
"          j                                   . .   ",
"      k l m n o                         p q r s i   ",
"    t u v c w x =                     y z A B C D   ",
"    ~ E F u G H _ I                 J ] K L M N =   ",
"    < G } O 1 P Q R               S T E 1 > , U V   ",
"    W X Y Z u `  .... . . . .   . +.< @.#.| $.%.&.  ",
"      *.=.{ Z -.;.                  >.,.'.` ^ $.).  ",
"        !.~.{.                        ].^./.(._.    ",
"                                                    ",
"                                                    "};
