/* XPM */ 
static const char * polygon_icon_xpm[] = {
"16 15 144 2",
"  	c None",
"! 	c black",
"# 	c #D9E8F1",
"$ 	c #A0C3DE",
"% 	c #9FC2DD",
"& 	c #A0C2DD",
"' 	c #9EC1DC",
"( 	c #A8C6DF",
") 	c #E0E4E9",
"* 	c #E3EDF6",
"+ 	c #8FB8DA",
", 	c #87B2D6",
"- 	c #8EB8DA",
". 	c #8CB6D9",
"0 	c #8EB9DC",
"1 	c #769DC4",
"2 	c #7D90AA",
"3 	c #EEF1F3",
"4 	c #ADCBE3",
"5 	c #8DB7D8",
"6 	c #EDF5F7",
"7 	c #EFF5F8",
"8 	c #EBF4F8",
"9 	c #E9F2F7",
": 	c #F0F8FB",
"; 	c #CBDBE9",
"< 	c #587AA5",
"= 	c #A3AEBC",
"> 	c #D6E6F1",
"? 	c #7DADD3",
"@ 	c #C7DEED",
"A 	c #F0F6F9",
"B 	c #EAF3F8",
"C 	c #E7F1F7",
"D 	c #E6F0F7",
"E 	c #E5EFF7",
"F 	c #EBF5FB",
"G 	c #98B7D6",
"H 	c #617997",
"I 	c #D0D6D8",
"J 	c #9ABEDD",
"K 	c #9BC0DE",
"L 	c #E8F2F8",
"M 	c #E2EDF6",
"N 	c #DDEAF5",
"O 	c #DBE9F4",
"P 	c #D7E7F3",
"Q 	c #D5E5F2",
"R 	c #DEECF6",
"S 	c #CEE3F2",
"T 	c #6186B0",
"U 	c #8292A7",
"V 	c #D3E4F0",
"W 	c #74A4CF",
"X 	c #CBDDEE",
"Y 	c #DDEBF5",
"Z 	c #D8E7F3",
"[ 	c #D5E6F3",
"] 	c #D4E4F2",
"^ 	c #CFE2F1",
"_ 	c #CBDEEF",
"` 	c #C6DAEC",
"a 	c #C6DAEF",
"b 	c #91ADCE",
"c 	c #516D92",
"d 	c #BFC0C2",
"e 	c #C7DCED",
"f 	c #73A4D0",
"g 	c #C9DDEF",
"h 	c #D3E3F2",
"i 	c #C8DCEE",
"j 	c #C2D7EC",
"k 	c #BBD0E9",
"l 	c #B5CBE7",
"m 	c #B1C7E6",
"n 	c #ADC2E4",
"o 	c #B4C8E9",
"p 	c #89A7CD",
"q 	c #405779",
"r 	c #A9A9AB",
"s 	c #DBE6F1",
"t 	c #6A98C6",
"u 	c #92B1D7",
"v 	c #B5CAE8",
"w 	c #B0C6E5",
"x 	c #AEC4E4",
"y 	c #ABC2E4",
"z 	c #ABC1E4",
"{ 	c #AABEE3",
"| 	c #A9BCE3",
"} 	c #AFC7EC",
"~ 	c #748FB3",
" !	c #545B68",
"!!	c #C5C4C2",
"#!	c #A4B0C1",
"$!	c #5F7CA2",
"%!	c #A4BDE1",
"&!	c #ADC3E5",
"'!	c #ABC0E4",
"(!	c #AABFE3",
")!	c #AABDE3",
"*!	c #B0C2E8",
"+!	c #9AB3D9",
",!	c #485D79",
"-!	c #858585",
".!	c #DEE2E5",
"0!	c #6E83A1",
"1!	c #7592BA",
"2!	c #B0C4E9",
"3!	c #AFC2E7",
"4!	c #ADBFE6",
"5!	c #AEBFE5",
"6!	c #AFC1E7",
"7!	c #A7BFE6",
"8!	c #6980A0",
"9!	c #5C616B",
":!	c #D2D1CF",
";!	c #B6BDC6",
"<!	c #5B769C",
"=!	c #80A2CD",
">!	c #87A9D2",
"?!	c #85A7D1",
"@!	c #84A6D0",
"A!	c #8AABD5",
"B!	c #6F8DB4",
"C!	c #414E64",
"D!	c #A9ABAE",
"E!	c #8B96A4",
"F!	c #34445B",
"G!	c #3B4656",
"H!	c #3B4859",
"I!	c #39485C",
"J!	c #384558",
"K!	c #3F4958",
"L!	c #808186",
"M!	c #DFDEDC",
"N!	c #E4E3E2",
"O!	c #C0C0BF",
"P!	c #B9BABC",
"Q!	c #B7B7B7",
"R!	c #B7B6B5",
"S!	c #B5B4B5",
"T!	c #BBBBBB",
"U!	c #D8D7D6",
"                                ",
"        # $ % & & ' ( )         ",
"      * + , - . . 0 1 2 3       ",
"      4 5 6 7 8 9 : ; < =       ",
"    > ? @ A B C D E F G H I     ",
"    J K L M N O P Q R S T U     ",
"  V W X Y Z [ ] ^ _ ` a b c d   ",
"  e f g h i j k l m n o p q r   ",
"  s t u v w x y z { | } ~  !!!  ",
"    #!$!%!&!z '!(!)!*!+!,!-!    ",
"    .!0!1!2!3!4!5!6!7!8!9!:!    ",
"      ;!<!=!>!?!@!A!B!C!D!      ",
"        E!F!G!H!I!J!K!L!M!      ",
"        N!O!P!Q!R!S!T!U!        ",
"                                "};
